<?xml version="1.0" encoding="UTF-8" standalone="no"?>
<svg
   version="1.1"
   width="400"
   height="400"
   id="svg3467"
   sodipodi:docname="BBI.svg"
   inkscape:version="1.2.2 (b0a84865, 2022-12-01)"
   xml:space="preserve"
   xmlns:inkscape="http://www.inkscape.org/namespaces/inkscape"
   xmlns:sodipodi="http://sodipodi.sourceforge.net/DTD/sodipodi-0.dtd"
   xmlns="http://www.w3.org/2000/svg"
   xmlns:svg="http://www.w3.org/2000/svg"><defs
     id="defs3471" /><sodipodi:namedview
     id="namedview3469"
     pagecolor="#505050"
     bordercolor="#eeeeee"
     borderopacity="1"
     inkscape:showpageshadow="0"
     inkscape:pageopacity="0"
     inkscape:pagecheckerboard="0"
     inkscape:deskcolor="#505050"
     showgrid="false"
     inkscape:zoom="1.6546299"
     inkscape:cx="124.49914"
     inkscape:cy="258.66812"
     inkscape:window-width="2259"
     inkscape:window-height="1348"
     inkscape:window-x="0"
     inkscape:window-y="25"
     inkscape:window-maximized="0"
     inkscape:current-layer="svg3467" /><g
     id="g570"
     transform="matrix(1.7514747,0,0,1.7514747,1.6001142,0.10509893)"><text
       xml:space="preserve"
       style="font-size:53.3333px;font-family:Avenir;-inkscape-font-specification:'Avenir, Normal';text-align:end;text-anchor:end;fill:#ffffff;fill-opacity:1;stroke-width:3.77953;paint-order:stroke markers fill"
       x="223.07693"
       y="12.512833"
       id="text6849"><tspan
         sodipodi:role="line"
         id="tspan6847"
         x="223.07693"
         y="12.512833"
         style="font-style:normal;font-variant:normal;font-weight:normal;font-stretch:normal;font-size:13.3333px;font-family:Avenir;-inkscape-font-specification:'Avenir, Normal';font-variant-ligatures:normal;font-variant-caps:normal;font-variant-numeric:normal;font-variant-east-asian:normal">University of Maryland - College Park</tspan></text><g
       id="g8408"
       transform="translate(0,20)"><g
         id="g6430"
         transform="matrix(0.24274333,0,0,0.24274333,-44.118939,-4.3546753)"><path
           d="M 0,0 C 0.68030273,0.19787109 1.3606055,0.39574219 2.0615234,0.59960938 6.4484575,1.8875549 10.728106,3.3635284 15,5 16.50627,5.5684766 16.50627,5.5684766 18.042969,6.1484375 22.477306,8.0552666 25.268722,9.4643799 27.125,14.0625 27.951881,16.922601 28,18.920452 28,22 c 0.652266,-0.155977 1.304531,-0.311953 1.976562,-0.472656 0.873985,-0.194649 1.747969,-0.389297 2.648438,-0.589844 0.858516,-0.197227 1.717031,-0.394453 2.601562,-0.597656 5.443956,-0.667076 9.004523,0.388764 13.363526,3.742676 0.547771,0.447143 1.095542,0.894287 1.659912,1.35498 0.890299,0.717122 0.890299,0.717122 1.798584,1.44873 C 70.933587,42.493952 85.934801,60.773259 98,82 c 0.559453,0.886875 1.118906,1.77375 1.695312,2.6875 2.301008,3.721842 3.316638,5.595306 3.242188,10.0625 -0.82267,2.851926 -1.81368,5.50807 -2.9375,8.25 0.64066,0.0683 1.28133,0.13664 1.94141,0.20703 3.86571,0.89298 6.91773,1.9877 9.12255,5.47656 2.6197,5.53903 4.25558,11.44049 5.93604,17.31641 0.26796,0.89251 0.53593,1.78503 0.81201,2.70459 5.554,18.62618 9.27617,38.14114 9.81299,57.60791 0.0353,0.70423 0.0706,1.40846 0.10693,2.13403 -0.0112,4.12762 -0.95398,6.19123 -3.77099,9.03394 -1.46567,1.24717 -1.46567,1.24717 -2.96094,2.51953 1.07747,2.51411 1.89882,3.91755 4.04688,5.66797 2.66694,3.18433 2.5552,5.92278 2.45312,9.89453 -0.0121,0.77448 -0.0242,1.54897 -0.0366,2.34692 C 126.8328,237.635 122.65698,257.15813 117,276 c -0.26152,0.91443 -0.52304,1.82886 -0.79248,2.771 -4.29035,14.74691 -4.29035,14.74691 -8.87549,18.2915 -2.50021,1.0156 -4.65601,1.65213 -7.33203,1.9375 0.51563,1.19625 1.03125,2.3925 1.5625,3.625 1.65907,3.84905 1.53671,6.32528 0.4375,10.375 -1.42054,3.07028 -3.089703,5.96556 -4.8125,8.875 -0.733799,1.24922 -0.733799,1.24922 -1.482422,2.52368 C 87.88251,337.45825 78.559338,349.06833 68,360 c -0.954667,1.018 -1.90909,2.03624 -2.863281,3.05469 -17.194283,18.08522 -17.194283,18.08522 -26.105469,19.375 C 36.522902,382.20099 34.392962,381.76629 32,381 c -1.332521,-0.33656 -2.665608,-0.67093 -4,-1 -0.154688,1.82531 -0.154688,1.82531 -0.3125,3.6875 -0.324844,3.83316 -1.235898,6.30822 -3.6875,9.3125 -2.910373,1.70481 -5.972643,2.87882 -9.125,4.0625 -0.886392,0.34362 -1.772783,0.68723 -2.686035,1.04126 C -13.751729,407.86103 -45.285668,410.18135 -72,402 c -0.680303,-0.19787 -1.360605,-0.39574 -2.061523,-0.59961 C -78.448458,400.11245 -82.728106,398.63647 -87,397 c -1.00418,-0.37898 -2.008359,-0.75797 -3.042969,-1.14844 -4.434337,-1.90683 -7.225753,-3.31594 -9.082031,-7.91406 C -99.951881,385.0774 -100,383.07955 -100,380 c -0.65227,0.15598 -1.30453,0.31195 -1.97656,0.47266 -1.31098,0.29197 -1.31098,0.29197 -2.64844,0.58984 -0.85852,0.19723 -1.71703,0.39445 -2.60156,0.59766 -5.44396,0.66707 -9.00452,-0.38877 -13.36353,-3.74268 -0.54777,-0.44714 -1.09554,-0.89429 -1.65991,-1.35498 -0.59353,-0.47808 -1.18707,-0.95616 -1.79858,-1.44873 C -142.93359,359.50605 -157.9348,341.22674 -170,320 c -0.55945,-0.88687 -1.11891,-1.77375 -1.69531,-2.6875 -2.30101,-3.72184 -3.31664,-5.59531 -3.24219,-10.0625 0.82267,-2.85193 1.81368,-5.50807 2.9375,-8.25 -0.64066,-0.0683 -1.28133,-0.13664 -1.94141,-0.20703 -3.86571,-0.89298 -6.91773,-1.9877 -9.12255,-5.47656 -2.6197,-5.53903 -4.25558,-11.44049 -5.93604,-17.31641 -0.26796,-0.89251 -0.53593,-1.78503 -0.81201,-2.70459 -5.554,-18.62618 -9.27617,-38.14114 -9.81299,-57.60791 -0.0353,-0.70423 -0.0706,-1.40846 -0.10693,-2.13403 0.0112,-4.12762 0.95398,-6.19123 3.77099,-9.03394 0.97711,-0.83144 1.95422,-1.66289 2.96094,-2.51953 -1.07747,-2.51411 -1.89882,-3.91755 -4.04687,-5.66797 -2.66695,-3.18433 -2.55521,-5.92278 -2.45313,-9.89453 0.0121,-0.77448 0.0242,-1.54897 0.0366,-2.34692 C -198.8328,164.365 -194.65698,144.84187 -189,126 c 0.26152,-0.91443 0.52304,-1.82886 0.79248,-2.771 4.29035,-14.74691 4.29035,-14.74691 8.87549,-18.2915 2.50021,-1.0156 4.65601,-1.65213 7.33203,-1.9375 -0.51562,-1.19625 -1.03125,-2.3925 -1.5625,-3.625 -1.65907,-3.849048 -1.53671,-6.325276 -0.4375,-10.375 1.42054,-3.070277 3.0897,-5.965564 4.8125,-8.875 0.4892,-0.832815 0.9784,-1.66563 1.48242,-2.523682 C -159.88251,64.541754 -150.55934,52.93167 -140,42 c 0.95467,-1.018005 1.90909,-2.036237 2.86328,-3.054688 17.19428,-18.085223 17.19428,-18.085223 26.10547,-19.375 2.50835,0.228703 4.63829,0.663402 7.03125,1.429688 1.33252,0.336565 2.66561,0.67093 4,1 0.103125,-1.216875 0.20625,-2.43375 0.3125,-3.6875 C -99.362656,14.479336 -98.451602,12.004276 -96,9 c 2.910373,-1.7048065 5.972643,-2.8788193 9.125,-4.0625 0.886392,-0.3436157 1.772783,-0.6872314 2.686035,-1.0412598 C -58.248271,-5.8610348 -26.714332,-8.1813462 0,0 Z m -90,27 c -1.618751,3.038794 -2.10877,5.573743 -2,9 -0.66,-0.165 -1.32,-0.33 -2,-0.5 -1.485,-0.2475 -1.485,-0.2475 -3,-0.5 -1.19625,-0.20625 -2.3925,-0.4125 -3.625,-0.625 -6.46971,0.08513 -10.89334,5.511607 -15.375,9.625 -0.8843,0.777305 -1.76859,1.554609 -2.67969,2.355469 -7.63931,6.745355 -14.60862,13.630455 -20.75781,21.769531 -0.56203,0.739922 -1.12406,1.479844 -1.70312,2.242187 C -145.87254,76.676407 -150.04669,83.172408 -154,90 c -0.53754,0.843047 -1.07508,1.686094 -1.62891,2.554687 -2.32849,3.768738 -3.39685,5.672445 -3.24609,10.195313 0.28875,1.0725 0.5775,2.145 0.875,3.25 0.18563,0.96938 0.37125,1.93875 0.5625,2.9375 0.14438,0.68063 0.28875,1.36125 0.4375,2.0625 -0.89187,0.11384 -0.89187,0.11384 -1.80176,0.22998 -2.77014,0.59087 -4.77649,1.28184 -7.19824,2.77002 -2.39609,3.78061 -3.5229,7.84332 -4.75,12.125 -0.55603,1.80489 -0.55603,1.80489 -1.12329,3.64624 C -177.1578,147.46227 -180.58842,165.59225 -182,184 c -0.0954,1.02738 -0.19078,2.05477 -0.28906,3.11328 -0.24913,4.42532 -0.14931,6.8774 2.85156,10.26172 0.80438,0.86625 1.60875,1.7325 2.4375,2.625 0.0625,2.125 0.0625,2.125 -1,4 -1.02094,0.80437 -1.02094,0.80437 -2.0625,1.625 -3.82087,4.68365 -2.0277,12.08054 -1.45703,17.82812 1.6022,13.7541 3.90984,27.17456 7.51953,40.54688 0.28504,1.07041 0.57009,2.14081 0.86377,3.24365 0.91298,3.33115 1.8878,6.63741 2.88623,9.94385 0.28641,1.03447 0.57283,2.06895 0.86792,3.13477 1.61687,5.3948 1.61687,5.3948 5.65356,9.0122 2.24997,0.75895 4.38349,1.30962 6.72852,1.66553 -0.55339,1.59505 -1.10677,3.1901 -1.66016,4.78516 -1.75758,11.45462 8.33916,23.17774 14.73609,32.02465 9.37664,12.68061 19.89225,24.23994 32.04907,34.31519 0.56179,0.48614 1.12358,0.97228 1.70239,1.47314 4.49756,3.60563 7.44943,3.9135 13.17261,3.40186 2.847155,-0.43355 2.847155,-0.43355 5,-1 -0.01805,0.56848 -0.03609,1.13695 -0.05469,1.72266 0.220881,2.87626 0.69052,4.71646 2.054687,7.27734 18.915435,14.31362 48.962561,15.79274 71.425781,12.75 C -6.3342791,385.88026 7.9716748,382.5886 18,375 c 1.618751,-3.03879 2.10877,-5.57374 2,-9 0.66,0.165 1.32,0.33 2,0.5 0.99,0.165 1.98,0.33 3,0.5 1.19625,0.20625 2.3925,0.4125 3.625,0.625 6.46971,-0.0851 10.893336,-5.51161 15.375,-9.625 0.884297,-0.7773 1.768594,-1.55461 2.679687,-2.35547 7.639318,-6.74535 14.608622,-13.63045 20.757813,-21.76953 0.562031,-0.73992 1.124062,-1.47984 1.703125,-2.24219 C 73.87254,325.32359 78.046694,318.82759 82,312 c 0.537539,-0.84305 1.075078,-1.68609 1.628906,-2.55469 C 85.957402,305.67658 87.025762,303.77287 86.875,299.25 86.441875,297.64125 86.441875,297.64125 86,296 85.814375,295.03062 85.62875,294.06125 85.4375,293.0625 85.293125,292.38187 85.14875,291.70125 85,291 c 0.59458,-0.0759 1.18916,-0.15179 1.801758,-0.22998 C 89.571896,290.17915 91.578247,289.48818 94,288 c 2.396093,-3.78061 3.522898,-7.84332 4.75,-12.125 0.370686,-1.20326 0.741372,-2.40652 1.123291,-3.64624 C 105.15766,254.53823 108.5899,236.40751 110,218 c 0.0954,-1.03898 0.19078,-2.07797 0.28906,-3.14844 C 110.42385,212.43245 110.5046,210.36773 110,208 c -2.45818,-2.79245 -2.45818,-2.79245 -5,-5 -0.0625,-2.5625 -0.0625,-2.5625 1,-5 0.68063,-0.55688 1.36125,-1.11375 2.0625,-1.6875 3.46341,-4.13374 2.12591,-9.85919 1.72925,-15.02417 C 108.33429,166.61046 105.84348,152.2384 102,138 c -0.28504,-1.07041 -0.57009,-2.14081 -0.86377,-3.24365 -0.91298,-3.33115 -1.887801,-6.63741 -2.88623,-9.94385 -0.286414,-1.03447 -0.572827,-2.06895 -0.86792,-3.13477 -1.616871,-5.3948 -1.616871,-5.3948 -5.653564,-9.0122 C 89.478552,111.90658 87.345034,111.35591 85,111 c 0.553385,-1.59505 1.106771,-3.1901 1.660156,-4.78516 C 88.417743,94.760224 78.320999,83.037104 71.924072,74.190186 62.54743,61.509579 52.031821,49.950252 39.875,39.875 39.31321,39.388862 38.751421,38.902725 38.172607,38.401855 33.675046,34.796227 30.723175,34.488365 25,35 c -2.847155,0.433546 -2.847155,0.433546 -5,1 0.01805,-0.568477 0.03609,-1.136953 0.05469,-1.722656 C 19.833806,31.401078 19.364167,29.560876 18,27 -8.520372,6.9315991 -63.479628,6.9315991 -90,27 Z"
           fill="#e51937"
           transform="translate(446,32)"
           id="path6382" /><path
           d="m 0,0 c 1.1815013,-0.01268417 2.3630026,-0.02536835 3.580307,-0.03843689 1.267798,0.0029356 2.535596,0.0058713 3.8418121,0.0088959 1.310458,-0.0052418 2.6209159,-0.0104837 3.9710849,-0.0158844 2.769746,-0.0089177 5.539204,-0.0065238 8.308944,0.0034332 3.538648,0.01148549 7.076298,-0.0087204 10.614814,-0.03791713 3.389271,-0.02282458 6.778311,-0.01589273 10.167657,-0.0121317 1.265774,-0.01123397 2.531548,-0.02246795 3.835678,-0.03404235 10.970405,0.08687166 10.970405,0.08687166 15.699478,4.53013607 1.500489,1.6530762 1.500489,1.6530762 2.570313,3.2929688 0.415884,0.6225366 0.831767,1.2450732 1.260254,1.8864746 0.427163,0.6626589 0.854326,1.3253169 1.294433,2.0080569 0.946691,1.422692 1.894655,2.844536 2.84375,4.265625 0.489844,0.739277 0.979688,1.478554 1.484375,2.240234 2.656873,3.961827 5.415152,7.851442 8.171875,11.744141 0.520943,0.739519 1.041885,1.479038 1.578614,2.240967 2.224078,3.30351 2.224078,3.30351 4.796386,6.321533 0.742718,6.223698 -0.282278,9.270377 -4.013671,14.241943 -0.572989,0.724534 -1.145977,1.449067 -1.736329,2.195557 -1.194212,1.571775 -2.386882,3.144723 -3.578125,4.71875 -0.610371,0.79664 -1.220742,1.593281 -1.849609,2.414062 -1.789869,2.386492 -3.497166,4.811668 -5.181641,7.273438 -0.528838,0.771584 -1.057675,1.543169 -1.602539,2.338134 -1.00267,1.470424 -1.999706,2.94471 -2.990234,4.42334 -0.688843,0.997856 -0.688843,0.997856 -1.391602,2.015869 -0.393808,0.581932 -0.787617,1.163863 -1.193359,1.763428 -2.654924,2.931848 -5.376171,4.467067 -9.30162,5.003159 -1.036694,0.0054 -2.073387,0.01081 -3.141495,0.01637 -1.181502,0.01269 -2.363003,0.02537 -3.580307,0.03844 -1.267798,-0.0029 -2.535596,-0.0059 -3.841812,-0.0089 -1.310458,0.0052 -2.620916,0.01048 -3.971085,0.01588 -2.769746,0.0089 -5.539204,0.0065 -8.308945,-0.0034 -3.538647,-0.01149 -7.076297,0.0087 -10.614813,0.03792 -3.389271,0.02282 -6.778312,0.01589 -10.1676574,0.01213 -1.8986606,0.01685 -1.8986606,0.01685 -3.8356781,0.03404 -11.0101017,-0.08719 -11.0101017,-0.08719 -15.6994785,-4.530136 -1.807617,-2.067871 -1.807617,-2.067871 -3.296875,-4.273438 -0.56187,-0.818232 -1.12374,-1.636465 -1.702636,-2.479492 -0.866492,-1.297925 -0.866492,-1.297925 -1.750489,-2.62207 -1.225337,-1.80552 -2.451907,-3.610203 -3.679687,-5.414063 -0.600381,-0.885908 -1.200762,-1.771816 -1.819336,-2.68457 -1.575084,-2.272584 -3.200678,-4.48166 -4.883789,-6.674805 -0.466963,-0.615688 -0.933926,-1.231377 -1.415039,-1.865722 -1.241286,-1.623536 -2.498495,-3.234862 -3.756836,-4.845215 -2.120422,-3.928155 -2.639043,-6.772501 -1.695313,-11.140625 1.457692,-2.558398 2.782545,-4.515305 4.625,-6.75 1.008352,-1.289214 2.013384,-2.58103 3.015625,-3.875 0.540762,-0.692227 1.081524,-1.384453 1.638672,-2.097657 1.875195,-2.481813 3.639623,-5.020317 5.392578,-7.589843 0.615367,-0.901377 1.230733,-1.802754 1.864746,-2.731446 1.206887,-1.77651 2.407938,-3.557002 3.60254,-5.341796 0.559936,-0.8162993 1.119873,-1.6325981 1.696777,-2.4736333 0.490327,-0.7267089 0.980654,-1.4534179 1.48584,-2.2021484 C -9.0196188,1.1394019 -5.4476912,0.028392 0,0 Z"
           fill="#e51937"
           transform="translate(385.98022,279.59595)"
           id="path6384" /><path
           d="m 0,0 c 1.1815013,-0.01268417 2.3630026,-0.02536835 3.580307,-0.03843689 1.267798,0.0029356 2.535596,0.0058713 3.8418121,0.0088959 1.310458,-0.0052418 2.6209159,-0.0104837 3.9710849,-0.0158844 2.769746,-0.0089177 5.539204,-0.0065238 8.308944,0.0034332 3.538648,0.01148549 7.076298,-0.0087204 10.614814,-0.03791713 3.389271,-0.02282458 6.778311,-0.01589273 10.167657,-0.0121317 1.265774,-0.01123397 2.531548,-0.02246795 3.835678,-0.03404235 11.008326,0.08717195 11.008326,0.08717195 15.699478,4.53013607 1.699952,1.9602051 1.699952,1.9602051 3.042969,4.0195313 0.511516,0.7678784 1.023032,1.5357568 1.550049,2.326904 0.526179,0.813802 1.052358,1.627603 1.594482,2.466065 4.861066,7.380421 4.861066,7.380421 10.101563,14.492187 0.76534,0.988429 0.76534,0.988429 1.546142,1.996826 0.956036,1.220522 1.926453,2.429969 2.913575,3.625489 2.722866,3.510164 4.06627,6.498841 3.769531,11.0083 -1.0392,4.139668 -3.661085,7.205407 -6.268311,10.502198 -1.194212,1.571775 -2.386882,3.144723 -3.578125,4.71875 -0.610371,0.79664 -1.220742,1.593281 -1.849609,2.414062 -1.789869,2.386492 -3.497166,4.811668 -5.181641,7.273438 -0.528838,0.771584 -1.057675,1.543169 -1.602539,2.338134 -1.00267,1.470424 -1.999706,2.94471 -2.990234,4.42334 -0.688843,0.997856 -0.688843,0.997856 -1.391602,2.015869 -0.393808,0.581932 -0.787617,1.163863 -1.193359,1.763428 -2.654924,2.931848 -5.376171,4.467067 -9.30162,5.003159 -1.036694,0.0054 -2.073387,0.01081 -3.141495,0.01637 -1.181502,0.01269 -2.363003,0.02537 -3.580307,0.03844 -1.267798,-0.0029 -2.535596,-0.0059 -3.841812,-0.0089 -1.310458,0.0052 -2.620916,0.01048 -3.971085,0.01588 -2.769746,0.0089 -5.539204,0.0065 -8.308945,-0.0034 -3.538647,-0.01149 -7.076297,0.0087 -10.614813,0.03792 -3.389271,0.02282 -6.778312,0.01589 -10.1676574,0.01213 -1.8986606,0.01685 -1.8986606,0.01685 -3.8356781,0.03404 -11.0083255,-0.08717 -11.0083255,-0.08717 -15.6994785,-4.530136 -1.699951,-1.960205 -1.699951,-1.960205 -3.042968,-4.019532 -0.511516,-0.767878 -1.023033,-1.535756 -1.550049,-2.326904 -0.526179,-0.813801 -1.052359,-1.627602 -1.594483,-2.466064 -4.861065,-7.380422 -4.861065,-7.380422 -10.101562,-14.492188 -0.765341,-0.988429 -0.765341,-0.988429 -1.546143,-1.996826 -0.956035,-1.220521 -1.926452,-2.429969 -2.913574,-3.625488 -2.722867,-3.510165 -4.06627,-6.498842 -3.769531,-11.008301 1.0392,-4.139668 3.661085,-7.205406 6.26831,-10.502197 1.194213,-1.571775 2.386883,-3.144723 3.578125,-4.71875 0.610371,-0.796641 1.220743,-1.593282 1.84961,-2.414063 1.789868,-2.386491 3.497166,-4.811667 5.18164,-7.273437 0.528838,-0.771585 1.057676,-1.543169 1.602539,-2.338135 1.002671,-1.470424 1.999707,-2.944709 2.990235,-4.4233399 0.459228,-0.6652368 0.918457,-1.3304736 1.391601,-2.0158691 0.393809,-0.5819312 0.787618,-1.1638623 1.19336,-1.7634278 C -8.8389416,1.0394216 -5.2423257,0.02732168 0,0 Z"
           fill="#e51937"
           transform="translate(385.98022,190.59595)"
           id="path6386" /><path
           d="m 0,0 c 1.1815013,-0.01268417 2.3630026,-0.02536835 3.580307,-0.03843689 1.267798,0.0029356 2.535596,0.0058713 3.8418121,0.0088959 1.310458,-0.0052418 2.6209159,-0.0104837 3.9710849,-0.0158844 2.769746,-0.0089177 5.539204,-0.0065238 8.308944,0.0034332 3.538648,0.01148549 7.076298,-0.0087204 10.614814,-0.03791713 3.389271,-0.02282458 6.778311,-0.01589273 10.167657,-0.0121317 1.265774,-0.01123397 2.531548,-0.02246795 3.835678,-0.03404235 11.010102,0.08718602 11.010102,0.08718602 15.699478,4.53013607 1.807618,2.0678711 1.807618,2.0678711 3.296875,4.2734375 0.561871,0.8182325 1.123741,1.6364648 1.702637,2.4794918 0.577661,0.865284 1.155322,1.730567 1.750488,2.622071 1.225338,1.805519 2.451908,3.610203 3.679688,5.414062 0.600381,0.885908 1.200762,1.771817 1.819336,2.684571 1.575084,2.272583 3.200678,4.48166 4.883789,6.674804 0.700444,0.923533 0.700444,0.923533 1.415039,1.865723 1.241286,1.623536 2.498495,3.234862 3.756836,4.845215 2.120422,3.928154 2.639043,6.772501 1.695312,11.140625 -1.457692,2.558398 -2.782545,4.515305 -4.625,6.75 -1.008352,1.289214 -2.013383,2.58103 -3.015625,3.875 -0.540761,0.692226 -1.081523,1.384453 -1.638671,2.097656 -1.875196,2.481813 -3.639623,5.020317 -5.392579,7.589844 -0.615366,0.901377 -1.230732,1.802754 -1.864746,2.731445 -1.206886,1.776511 -2.407937,3.557003 -3.602539,5.341797 -0.839905,1.224448 -0.839905,1.224448 -1.696777,2.473633 -0.490327,0.726709 -0.980654,1.453418 -1.48584,2.202148 -2.709056,3.129168 -5.391524,4.762755 -9.516952,5.326157 -1.036694,0.0054 -2.073387,0.01081 -3.141495,0.01637 -1.181502,0.01269 -2.363003,0.02537 -3.580307,0.03844 -1.267798,-0.0029 -2.535596,-0.0059 -3.841812,-0.0089 -1.310458,0.0052 -2.620916,0.01048 -3.971085,0.01588 -2.769746,0.0089 -5.539204,0.0065 -8.308945,-0.0034 -3.538647,-0.01149 -7.076297,0.0087 -10.614813,0.03792 -3.389271,0.02282 -6.778312,0.01589 -10.1676574,0.01213 -1.8986606,0.01685 -1.8986606,0.01685 -3.8356781,0.03404 -10.9704042,-0.08687 -10.9704042,-0.08687 -15.6994785,-4.530136 -1.500488,-1.653076 -1.500488,-1.653076 -2.570312,-3.292969 -0.415884,-0.622537 -0.831768,-1.245073 -1.260254,-1.886475 -0.427163,-0.662658 -0.854326,-1.325317 -1.294434,-2.008056 -0.94669,-1.422692 -1.894655,-2.844537 -2.84375,-4.265625 -0.489843,-0.739278 -0.979687,-1.478555 -1.484375,-2.240235 -2.656872,-3.961826 -5.415151,-7.851441 -8.171875,-11.74414 -0.520942,-0.739519 -1.041884,-1.479038 -1.578613,-2.240967 -2.224078,-3.30351 -2.224078,-3.30351 -4.796387,-6.321533 -0.742717,-6.223698 0.282279,-9.270377 4.013672,-14.241944 0.572989,-0.724533 1.145977,-1.449067 1.736328,-2.195556 1.194213,-1.571775 2.386883,-3.144723 3.578125,-4.71875 0.610371,-0.796641 1.220743,-1.593282 1.84961,-2.414063 1.789868,-2.386491 3.497166,-4.811667 5.18164,-7.273437 0.528838,-0.771585 1.057676,-1.543169 1.602539,-2.338135 1.002671,-1.470424 1.999707,-2.944709 2.990235,-4.4233399 0.459228,-0.6652368 0.918457,-1.3304736 1.391601,-2.0158691 0.393809,-0.5819312 0.787618,-1.1638623 1.19336,-1.7634278 C -8.8389416,1.0394216 -5.2423257,0.02732168 0,0 Z"
           fill="#e51937"
           transform="translate(385.98022,101.59595)"
           id="path6388" /><path
           d="m 0,0 c 1.3680695,0.0029077 2.7361465,0.00328738 4.1042175,0.00126648 2.8566854,0.00320543 5.7118212,0.03002764 8.5681455,0.07514954 3.653172,0.05677819 7.304422,0.06484704 10.957964,0.05659198 2.820933,-0.002803 5.641441,0.0148324 8.46226,0.0391321 1.999049,0.0151077 3.998182,0.0173344 5.997287,0.0193424 1.218315,0.0222917 2.436631,0.0445834 3.691864,0.0675507 1.603811,0.0183465 1.603811,0.0183465 3.240021,0.0370636 4.411922,0.801269 6.835284,3.2210087 9.617889,6.6118622 0.503057,0.7342016 1.006114,1.4684033 1.524414,2.2248535 0.855374,1.2349625 0.855374,1.2349625 1.728028,2.4948735 0.884861,1.303846 0.884861,1.303846 1.787597,2.634033 1.236542,1.807591 2.473522,3.614882 3.710938,5.421875 0.600381,0.879785 1.200762,1.75957 1.819336,2.666015 1.501206,2.160168 3.043231,4.270571 4.633789,6.365235 0.421846,0.566623 0.843691,1.133247 1.27832,1.717041 1.098064,1.46688 2.213856,2.920443 3.331055,4.372802 2.022463,4.135884 2.311906,7.499224 1.476562,12.019532 -1.225024,2.797901 -2.893095,5.086337 -4.75,7.5 -1.008002,1.38007 -2.015807,2.760283 -3.023437,4.140625 -0.528193,0.70834 -1.056387,1.416679 -1.600586,2.146484 -1.664468,2.265276 -3.264719,4.565218 -4.852539,6.884766 -0.78939,1.147588 -0.78939,1.147588 -1.594727,2.318359 -1.012861,1.473137 -2.022775,2.948306 -3.029296,4.425781 -0.469541,0.672246 -0.939082,1.344493 -1.422852,2.03711 -0.406538,0.589424 -0.813076,1.178847 -1.231934,1.786133 -4.616264,5.438174 -4.616264,5.438174 -8.615936,6.12503 -2.640056,0.149033 -5.250217,0.163735 -7.894318,0.131805 -0.970402,0.0015 -1.940804,0.0029 -2.940612,0.0044 -2.050914,-0.0017 -4.10184,-0.0132 -6.152649,-0.03395 -3.116596,-0.02883 -6.231475,-0.02063 -9.348145,-0.0076 -1.998706,-0.0062 -3.997407,-0.01464 -5.996093,-0.02539 -0.922184,0.0029 -1.844367,0.0059 -2.794495,0.0089 -5.7716559,-0.0828 -11.64485308,-0.510158 -16.7523805,-3.442489 -1.9388912,-2.958217 -2.8381366,-5.9094 -3.75,-9.3125 -0.2767455,-0.926997 -0.5534915,-1.853994 -0.8386235,-2.809082 -0.857172,-2.947724 -1.645503,-5.905741 -2.411377,-8.878418 -0.247661,-0.956646 -0.495322,-1.913291 -0.750488,-2.898926 -2.852594,-11.277292 -5.05993,-22.525037 -6.249511,-34.101074 -0.191933,-1.334936 -0.386003,-2.669566 -0.582032,-4.003907 -0.162436,-1.331755 -0.322658,-2.663782 -0.480468,-3.996093 -0.155977,-1.175625 -0.311954,-2.35125 -0.472657,-3.5625 0.672013,-4.3165788 2.012008,-5.9811838 5.12764,-8.9444888 C -11.490561,-0.7756037 -5.6907017,-0.10287894 0,0 Z"
           fill="#e51937"
           transform="translate(291.07031,235.17578)"
           id="path6390" /><path
           d="m 0,0 c 0.97040222,-0.00145523 1.9408044,-0.00291046 2.9406128,-0.00440979 2.0509135,0.00165745 4.1018397,0.01320144 6.1526489,0.03395081 3.1165953,0.02882596 6.2314743,0.02063047 9.3481443,0.0075684 1.998706,0.0062421 3.997407,0.01463666 5.996094,0.02539062 0.922183,-0.0029356 1.844366,-0.0058713 2.794495,-0.0088959 5.771655,0.08280442 11.644853,0.51015851 16.75238,3.44248966 1.938891,2.9582164 2.838137,5.9093999 3.75,9.3125002 0.415118,1.390495 0.415118,1.390495 0.838623,2.809082 0.857173,2.947723 1.645503,5.905741 2.411377,8.878418 0.247661,0.956645 0.495322,1.913291 0.750488,2.898926 2.852594,11.277292 5.05993,22.525036 6.249512,34.101074 0.191932,1.334936 0.386003,2.669565 0.582031,4.003906 0.162437,1.331755 0.322658,2.663783 0.480469,3.996094 0.155977,1.175625 0.311953,2.35125 0.472656,3.5625 -0.672013,4.316578 -2.012007,5.981183 -5.12764,8.944488 -4.987268,3.092834 -10.787127,2.420109 -16.477829,2.31723 -1.368069,-0.0029 -2.736146,-0.0033 -4.104217,-0.0013 -2.856685,-0.0032 -5.711821,-0.03003 -8.568146,-0.07515 -3.653172,-0.05678 -7.304422,-0.06485 -10.957964,-0.05659 -2.820933,0.0028 -5.6414402,-0.01483 -8.462259,-0.03913 -1.9990492,-0.01511 -3.9981825,-0.01733 -5.99728777,-0.01934 -1.21831513,-0.02229 -2.43663023,-0.04458 -3.69186403,-0.06755 -1.0692068,-0.01223 -2.1384137,-0.02446 -3.2400207,-0.03706 C -11.519619,83.222947 -13.94298,80.803207 -16.725586,77.412354 -17.228643,76.678152 -17.731699,75.94395 -18.25,75.1875 c -0.570249,-0.823308 -1.140498,-1.646616 -1.728027,-2.494873 -0.589908,-0.869231 -1.179815,-1.738462 -1.787598,-2.634033 -1.236542,-1.807591 -2.473521,-3.614883 -3.710937,-5.421875 -0.600381,-0.879785 -1.200762,-1.759571 -1.819336,-2.666016 -1.501206,-2.160168 -3.043231,-4.270571 -4.633789,-6.365234 -0.421846,-0.566624 -0.843692,-1.133247 -1.278321,-1.717041 -1.098063,-1.466881 -2.213855,-2.920444 -3.331054,-4.372803 -2.022463,-4.135883 -2.311906,-7.499224 -1.476563,-12.019531 1.225025,-2.797901 2.893095,-5.086337 4.75,-7.5 1.008002,-1.38007 2.015807,-2.760284 3.023438,-4.140625 0.528193,-0.70834 1.056386,-1.41668 1.600585,-2.146485 1.664469,-2.265276 3.26472,-4.565218 4.85254,-6.884765 0.526259,-0.765059 1.052519,-1.530117 1.594726,-2.31836 1.012861,-1.473136 2.022775,-2.948305 3.029297,-4.425781 0.469541,-0.672246 0.939082,-1.3444921 1.422852,-2.0371092 0.406538,-0.5894239 0.813076,-1.1788477 1.231933,-1.7861329 C -11.423863,0.26483116 -7.5082193,-0.09066857 0,0 Z"
           fill="#e51937"
           transform="translate(491.01562,146.50391)"
           id="path6392" /><path
           d="m 0,0 c 1.4577862,-0.01142029 1.4577862,-0.01142029 2.9450226,-0.02307129 2.03954,-0.01073771 4.0791348,-0.01368009 6.1186981,-0.0091553 3.1144513,9.7731e-4 6.2264763,-0.04082062 9.3405763,-0.08496094 1.990229,-0.005204 3.980467,-0.007895 5.970703,-0.007813 0.925119,-0.0163953 1.850238,-0.0327905 2.80339,-0.0496826 4.318942,0.046119 7.341015,0.1953535 10.77913,2.96643063 3.651414,3.8624113 3.651414,3.8624113 5.13623,6.1027833 0.421121,0.6238256 0.842241,1.2476512 1.276123,1.8903802 0.43095,0.658792 0.861899,1.317583 1.305908,1.996338 0.946866,1.425178 1.894816,2.849636 2.84375,4.273437 0.483399,0.727999 0.966797,1.455997 1.464844,2.206055 1.503216,2.206994 3.06706,4.354258 4.660156,6.49707 0.507649,0.695691 1.015298,1.391382 1.53833,2.108155 0.968223,1.32321 1.951676,2.635461 2.952637,3.934082 2.912843,4.046829 4.177151,7.335864 3.875488,12.367676 -1.008866,4.441179 -3.586204,7.763765 -6.272705,11.363525 -0.872776,1.218043 -0.872776,1.218043 -1.763183,2.460693 -1.80757,2.508669 -3.64484,4.993331 -5.486817,7.476807 -1.144036,1.57233 -2.287293,3.145227 -3.429687,4.71875 -1.063009,1.449456 -2.12802,2.897446 -3.195313,4.34375 -0.495967,0.672327 -0.991933,1.344653 -1.502929,2.037354 -2.143004,2.844114 -3.883013,4.907441 -6.872071,6.900146 -2.667419,0.287613 -2.667419,0.287613 -5.920898,0.338135 -1.218466,0.02244 -2.436933,0.04489 -3.692322,0.06801 -1.318731,0.01164 -2.637462,0.02327 -3.996155,0.03526 -1.008796,0.01036 -1.008796,0.01036 -2.037971,0.02092 -3.561239,0.03583 -7.122319,0.05937 -10.6837084,0.07308 -3.6668869,0.01652 -7.33183675,0.07491 -10.9980736,0.143144 -2.8294647,0.04493 -5.6584715,0.05836 -8.488262,0.06347 -2.004791,0.01167 -4.009299,0.0567 -6.013603,0.102358 -10.181893,-0.04902 -10.181893,-0.04902 -14.526429,-4.089249 -2.485669,-2.820094 -3.017769,-4.852335 -3.064453,-8.591065 0.181018,-1.851057 0.407811,-3.698016 0.671875,-5.539062 0.116983,-0.998782 0.233965,-1.997563 0.354492,-3.026611 2.25187,-17.885682 5.958796,-35.649512 11.783692,-52.725342 0.694282,-2.0152534 0.694282,-2.0152534 1.225098,-4.7324215 C -16.910008,-0.54741163 -6.5509877,0.0014357 0,0 Z"
           fill="#e51937"
           transform="translate(304.51172,146.53125)"
           id="path6394" /><path
           d="m 0,0 c 1.2184662,-0.02244278 2.4369324,-0.04488556 3.6923218,-0.06800842 1.3187311,-0.01163681 2.6374621,-0.02327362 3.9961548,-0.03526306 1.0087959,-0.0103544 1.0087959,-0.0103544 2.0379715,-0.0209179 3.5612379,-0.035827 7.1223189,-0.0593682 10.6837079,-0.0730762 3.666887,-0.0165239 7.331837,-0.0749087 10.998074,-0.14314366 2.829465,-0.0449282 5.658471,-0.0583612 8.488262,-0.0634737 2.004791,-0.011672 4.009298,-0.0567019 6.013603,-0.10235786 10.181893,0.0490179 10.181893,0.0490179 14.526428,4.0892486 2.48567,2.8200944 3.01777,4.8523355 3.064454,8.5910642 -0.181018,1.851058 -0.407811,3.698017 -0.671875,5.539063 -0.116983,0.998781 -0.233965,1.997563 -0.354493,3.026611 -2.251869,17.885682 -5.958795,35.649512 -11.783691,52.725342 -0.694283,2.015254 -0.694283,2.015254 -1.225098,4.732422 -2.343985,3.618321 -6.332592,4.170178 -10.386718,5.140625 -3.509918,0.412174 -6.979963,0.467976 -10.511719,0.46875 -1.457786,0.01142 -1.457786,0.01142 -2.945023,0.02307 -2.03954,0.01074 -4.079135,0.01368 -6.118698,0.0092 -3.114451,-9.77e-4 -6.226476,0.04082 -9.340576,0.08496 -1.9902293,0.0052 -3.9804671,0.0079 -5.9707032,0.0078 -0.9251189,0.0164 -1.8502377,0.03279 -2.8033905,0.04968 -4.3189411,-0.04612 -7.3410141,-0.195353 -10.779129,-2.96643 -3.6514143,-3.862412 -3.6514143,-3.862412 -5.1362303,-6.102783 -0.421121,-0.623826 -0.842241,-1.247652 -1.276123,-1.890381 -0.43095,-0.658792 -0.8619,-1.317583 -1.305908,-1.996338 -0.946866,-1.425178 -1.894816,-2.849636 -2.84375,-4.273438 -0.725098,-1.091997 -0.725098,-1.091997 -1.464844,-2.206054 -1.503216,-2.206994 -3.06706,-4.354258 -4.660156,-6.497071 -0.507649,-0.695691 -1.015298,-1.391382 -1.538331,-2.108154 -0.968222,-1.323211 -1.951675,-2.635461 -2.952636,-3.934082 -2.912843,-4.04683 -4.177151,-7.335864 -3.875489,-12.367676 1.008867,-4.441179 3.586205,-7.763765 6.272706,-11.363525 0.58185,-0.812029 1.163701,-1.624058 1.763183,-2.460694 1.80757,-2.508668 3.64484,-4.99333 5.486817,-7.476806 1.144036,-1.57233 2.287293,-3.145227 3.429687,-4.71875 1.063009,-1.449456 2.12802,-2.897446 3.195313,-4.3437502 0.495966,-0.6723267 0.991933,-1.3446534 1.502929,-2.0373536 C -8.8297446,1.9784383 -6.5927119,0.10237534 0,0 Z"
           fill="#e51937"
           transform="translate(486.9209,235.66187)"
           id="path6396" /><path
           d="M 0,0 C 0.82814209,0.27142822 1.6562842,0.54285645 2.5095215,0.82250977 8.2182516,2.9163299 8.2182516,2.9163299 10.164063,6.6054687 10.932965,11.746692 11.11106,14.656147 7.9570312,18.9375 7.3930664,19.710937 6.8291016,20.484375 6.2480469,21.28125 5.6505664,22.075312 5.0530859,22.869375 4.4375,23.6875 3.8593555,24.481562 3.2812109,25.275625 2.6855469,26.09375 -5.5852405,37.308377 -5.5852405,37.308377 -10.372314,38.322418 c -1.110769,0.004 -2.221539,0.008 -3.365967,0.01206 -1.897218,0.02364 -1.897218,0.02364 -3.832764,0.04776 -1.372161,-0.0089 -2.744313,-0.01921 -4.116455,-0.03067 -1.415776,0.0034 -2.831549,0.0082 -4.247314,0.0145 -2.96244,0.0074 -5.924124,-0.0033 -8.886475,-0.0267 -3.790086,-0.02849 -7.578402,-0.01208 -11.368424,0.01786 -2.922116,0.0181 -5.843816,0.0123 -8.765945,-6.39e-4 -1.396995,-0.0033 -2.794029,7.25e-4 -4.190979,0.0124 -1.955019,0.01275 -3.910172,-0.01014 -5.865082,-0.0345 -1.666153,-0.006 -1.666153,-0.006 -3.365967,-0.01206 -3.943186,-0.835281 -5.417747,-2.617095 -7.997314,-5.634918 -0.586362,-0.685459 -1.172725,-1.370918 -1.776855,-2.077148 -1.725739,-2.205257 -3.416816,-4.43356 -5.098145,-6.672852 -0.605859,-0.760547 -1.211719,-1.521094 -1.835937,-2.304688 -2.970383,-3.983012 -4.764081,-6.76171 -4.359375,-11.835937 0.525791,-3.3282667 1.415722,-5.0119726 4.070312,-7.109375 2.077881,-0.951416 2.077881,-0.951416 4.464844,-1.75390625 0.883652,-0.29712891 1.767304,-0.59425781 2.677734,-0.90039063 1.383486,-0.44956054 1.383486,-0.44956054 2.794922,-0.90820312 0.88752,-0.3035742 1.775039,-0.6071484 2.689453,-0.9199219 C -49.029706,-9.6327322 -23.385199,-7.9847096 0,0 Z"
           fill="#e51937"
           transform="translate(449.375,58.3125)"
           id="path6398" /><path
           d="m 0,0 c 1.264812,-0.0157608 2.529624,-0.03152161 3.8327637,-0.04776001 1.3721606,0.0089501 2.7443132,0.01920518 4.116455,0.03067017 1.4157758,-0.0033709 2.8315483,-0.0082258 4.2473143,-0.01449585 2.96244,-0.0073586 5.924123,0.0032998 8.886475,0.02670288 3.790086,0.02848924 7.578402,0.01207953 11.368423,-0.01786232 2.922117,-0.01810162 5.843816,-0.01230229 8.765946,6.3896e-4 1.396995,0.0033262 2.794028,-7.2549e-4 4.190979,-0.01239777 C 47.363375,-0.04725582 49.318528,-0.0243601 51.273437,0 c 1.666154,0.00596695 1.666154,0.00596695 3.365967,0.01205444 3.943186,0.83528126 5.417748,2.61709516 7.997315,5.63491826 0.879543,1.0281884 0.879543,1.0281884 1.776855,2.0771484 1.725738,2.205257 3.416816,4.4335599 5.098145,6.6728519 0.605859,0.760547 1.211719,1.521093 1.835937,2.304687 2.970383,3.983013 4.764081,6.76171 4.359375,11.835938 -0.525791,3.328266 -1.415722,5.011972 -4.070312,7.109375 -2.077881,0.951416 -2.077881,0.951416 -4.464844,1.753906 -0.883652,0.297129 -1.767305,0.594258 -2.677734,0.900391 -0.922325,0.299707 -1.844649,0.599414 -2.794922,0.908203 -0.88752,0.303574 -1.775039,0.607148 -2.689453,0.919922 -23.718341,7.83781 -49.3628482,6.189787 -72.748047,-1.794922 -0.828142,-0.271429 -1.656284,-0.542857 -2.509522,-0.82251 -5.70873,-2.09382 -5.70873,-2.09382 -7.654541,-5.782959 -0.768903,-5.141224 -0.946997,-8.050679 2.207032,-12.332031 0.563964,-0.773438 1.127929,-1.546875 1.708984,-2.34375 0.59748,-0.794063 1.194961,-1.588125 1.810547,-2.40625 0.578144,-0.794063 1.156289,-1.588125 1.751953,-2.40625 C -7.4158819,0.02655829 -7.4158819,0.02655829 0,0 Z"
           fill="#e51937"
           transform="translate(384.36328,369.35303)"
           id="path6400" /><path
           d="m 0,0 c 1.2609675,2.2659e-4 1.2609675,2.2659e-4 2.5474091,4.5776e-4 1.3548223,0.01548386 1.3548223,0.01548386 2.7370147,0.03128052 1.3919836,0.0042448 1.3919836,0.0042448 2.812088,0.0085754 2.9651122,0.0111987 5.9299222,0.03630272 8.8949432,0.06173706 2.009761,0.0100302 4.019527,0.019156 6.029297,0.0273438 4.927851,0.0220562 9.855476,0.056584 14.783203,0.0976563 2.478823,4.63372736 3.535514,6.85073296 2,12.00000016 -9.066249,19.103882 -23.936475,36.398223 -39.99999992,50 -0.70898438,0.653554 -1.41796878,1.307109 -2.14843748,1.980469 -3.2170331,2.778346 -5.9014505,4.525558 -10.2265626,4.707031 -6.012773,-1.123494 -9.13571,-6.602584 -12.382812,-11.332031 -0.385752,-0.579595 -0.771504,-1.15919 -1.168946,-1.756348 -0.897022,-1.336555 -1.849976,-2.635347 -2.815429,-3.92334 -2.918837,-4.064933 -3.796026,-7.257073 -3.677247,-12.240723 0.785593,-4.560827 3.450008,-7.853681 6.169434,-11.497558 0.581851,-0.812029 1.163701,-1.624058 1.763184,-2.460694 1.807569,-2.508668 3.644839,-4.99333 5.486816,-7.476806 1.144036,-1.57233 2.287294,-3.145227 3.429688,-4.71875 1.063008,-1.449456 2.12802,-2.897446 3.195312,-4.3437501 0.495967,-0.6723267 0.991934,-1.3446533 1.50293,-2.0373535 C -7.7919076,2.779137 -5.6259061,-0.03378923 0,0 Z"
           fill="#e51937"
           transform="translate(485.19604,324.77295)"
           id="path6402" /><path
           d="M 0,0 C 0.99,0.85464844 1.98,1.7092969 3,2.5898438 9.7358385,8.5225921 15.581413,14.816556 21,22 c 0.409922,0.540278 0.819844,1.080557 1.242187,1.637207 C 38.224304,44.84378 38.224304,44.84378 37.800781,52.691406 37,56 37,56 35,59 c -1.801346,0.38768 -1.801346,0.38768 -4.003174,0.404053 -0.824582,0.01268 -1.649164,0.02537 -2.498733,0.03844 -0.892691,-0.0029 -1.785382,-0.0059 -2.705124,-0.0089 -0.917546,0.0052 -1.835092,0.01048 -2.780442,0.01588 -1.944351,0.0064 -3.888741,0.0051 -5.833084,-0.0034 -2.97003,-0.0085 -5.93812,0.02019 -8.9079586,0.052 -1.8886713,0.0016 -3.777346,0.001 -5.6660156,-0.002 -0.8866182,0.01123 -1.77323644,0.02247 -2.68672185,0.03404 C -4.1048359,59.48488 -6.4012588,59.363956 -9.8981934,57.238281 -11.877368,55.130595 -13.601025,53.07525 -15.234375,50.691406 -15.804624,49.868098 -16.374873,49.04479 -16.962402,48.196533 -17.55231,47.327302 -18.142217,46.458071 -18.75,45.5625 c -1.236542,-1.807591 -2.473521,-3.614883 -3.710937,-5.421875 -0.600381,-0.879785 -1.200762,-1.75957 -1.819336,-2.666016 -1.501206,-2.160167 -3.043231,-4.27057 -4.633789,-6.365234 -0.421846,-0.566624 -0.843692,-1.133247 -1.278321,-1.717041 -1.098063,-1.46688 -2.213855,-2.920444 -3.331054,-4.372803 C -35.552292,20.870577 -35.887304,17.532509 -35,13 c 1.394516,-3.0413489 3.227866,-5.5949844 5.25,-8.25 0.491133,-0.680625 0.982266,-1.36125 1.488281,-2.0625 C -26.867936,0.76965551 -25.441939,-1.1182141 -24,-3 c 0.72832,-0.9667969 1.456641,-1.9335937 2.207031,-2.9296875 C -20,-8 -20,-8 -17.5625,-8.875 -9.7312036,-9.2570145 -5.6336532,-4.874675 0,0 Z"
           fill="#e51937"
           transform="translate(488,82)"
           id="path6404" /><path
           d="m 0,0 c 5.2364716,2.4224798 8.3170244,7.8769029 11.43457,12.561035 0.897022,1.336555 1.849976,2.635347 2.81543,3.92334 2.897332,4.034986 3.833361,7.247758 3.717285,12.200684 -0.894037,4.816017 -3.917599,8.341635 -6.834472,12.162597 -0.952054,1.297321 -0.952054,1.297321 -1.9233403,2.62085 -1.2826876,1.747075 -2.5731432,3.488476 -3.8715821,5.223877 -1.6555946,2.232491 -3.2625913,4.488257 -4.8457031,6.772461 -0.44553223,0.641067 -0.89106445,1.282134 -1.35009766,1.942627 -0.81447534,1.174025 -1.62679924,2.349548 -2.43652344,3.526855 -2.1503423,3.043249 -3.9227586,5.431224 -7.1977544,7.22583 -3.194895,0.416027 -6.361168,0.348434 -9.578124,0.292969 -1.389862,-0.0064 -1.389862,-0.0064 -2.807801,-0.01286 -2.954989,-0.01677 -5.909292,-0.05442 -8.864074,-0.09261 -2.005199,-0.01505 -4.010408,-0.02874 -6.015625,-0.04102 -4.911722,-0.03305 -9.822933,-0.08482 -14.734375,-0.146485 -3.701813,-7.187753 -3.701813,-7.187753 -3,-11 1.382461,-2.955956 3.069218,-5.682328 4.8125,-8.4375 0.497014,-0.796238 0.994028,-1.592475 1.506103,-2.412842 C -38.757171,29.905976 -25.992292,14.938196 -10.492188,3.1601563 -9.4751172,2.3132422 -9.4751172,2.3132422 -8.4375,1.4492187 -5.470913,-0.51659191 -3.4627425,-0.4971264 0,0 Z"
           fill="#e51937"
           transform="translate(349.49219,72.839844)"
           id="path6406" /><path
           d="m 0,0 c 1.0899049,-0.00810448 1.0899049,-0.00810448 2.201828,-0.01637268 1.2368731,-0.01902626 1.2368731,-0.01902626 2.4987335,-0.03843689 0.8926909,0.0029356 1.7853818,0.0058713 2.7051239,0.0088959 0.9175457,-0.0052418 1.8350913,-0.0104837 2.7804416,-0.0158844 1.944351,-0.0064316 3.888741,-0.0050686 5.833084,0.0034332 2.97003,0.0084823 5.93812,-0.02019018 8.907959,-0.05200195 1.888671,-0.001613 3.777346,-0.001033 5.666015,0.001953 1.329928,-0.016851 1.329928,-0.016851 2.686722,-0.0340424 4.023583,0.04525574 6.320006,0.16618055 9.816941,2.29185482 1.979174,2.1076866 3.702831,4.1630317 5.336181,6.546875 0.570249,0.8233081 1.140498,1.6466164 1.728028,2.4948734 0.589907,0.869231 1.179814,1.738462 1.787597,2.634033 1.236542,1.807591 2.473521,3.614883 3.710938,5.421875 0.900571,1.319678 0.900571,1.319678 1.819336,2.666016 1.501205,2.160167 3.04323,4.27057 4.633789,6.365234 0.421845,0.566624 0.843691,1.133247 1.27832,1.717041 1.098063,1.46688 2.213855,2.920444 3.331055,4.372803 2.028854,4.148954 2.363866,7.487022 1.476562,12.019531 -1.394515,3.041349 -3.227866,5.594984 -5.25,8.25 -0.491133,0.680625 -0.982265,1.36125 -1.488281,2.0625 -1.393718,1.917755 -2.823129,3.803316 -4.261719,5.6875 -0.694805,0.956484 -1.389609,1.912969 -2.105469,2.898438 -2.666019,2.957357 -4.460902,3.393444 -8.347656,3.609375 C 41.119754,67.773789 37.242596,63.196953 33.198654,59.38768 32.185311,58.495572 31.16834,57.607568 30.147873,56.723618 23.426694,50.842986 17.583147,44.525926 12.198654,37.38768 11.788732,36.847402 11.37881,36.307123 10.956467,35.750473 -5.0256497,14.5439 -5.0256497,14.5439 -4.6021271,6.6962738 -3.1452568,0.67691241 -3.1452568,0.67691241 0,0 Z"
           fill="#e51937"
           transform="translate(298.80135,324.61232)"
           id="path6408" /></g><g
         id="g8358"><g
           id="g8272"
           transform="matrix(0.51535381,0,0,0.51535381,176.56579,95.747678)"><path
             d="m -37.494255,17.057366 c 1.184648,-0.0052 2.369297,-0.01031 3.589844,-0.01563 3.483089,0.266423 6.19104,1.128796 9.472656,2.265625 3.062258,-0.263988 5.874292,-0.677682 8.828125,-1.523437 8.7643591,-1.923115 17.3819731,-0.849133 25.1718751,3.523437 2.0493069,1.430205 3.9962759,2.934482 5.9374999,4.507813 2.260724,1.635599 4.51326,2.677736 7.0625,3.804687 7.730887,3.740752 12.282381,9.487203 15.4375,17.375 2.140159,5.213022 4.552793,7.030356 9.34375,9.785156 5.128704,3.530502 8.315004,9.703094 10.218754,15.527344 0.13989,2.101164 0.21974,4.206901 0.25,6.3125 0.35056,5.764794 1.53787,8.576729 5.25,12.886719 4.93845,5.928716 5.00893,12.85908 4.86719,20.30859 -0.44341,4.2171 -1.77779,7.4466 -3.42969,11.3125 -1.25698,4.26325 -1.2815,8.3202 -1.375,12.74219 -0.19793,7.39104 -0.89855,13.38378 -5.5625,19.4375 -0.85207,0.75152 -1.70414,1.50305 -2.58204,2.27734 -2.95876,3.3316 -3.36548,6.14888 -3.85546,10.41016 -1.39415,9.07587 -4.220284,15.97255 -11.625004,21.8125 -4.209544,2.83289 -7.768374,4.31143 -12.8125,5.125 -3.653498,0.85565 -5.086168,2.1886 -7.375,5.125 -5.013899,6.20229 -11.3871929,9.6233 -19.28515585,10.75781 -6.81073105,0.22233 -12.20609415,-0.60339 -18.28125015,-3.73047 -3.990915,-1.42073 -6.902368,0.0948 -10.621094,1.78516 -7.038042,2.65086 -14.759381,2.65754 -21.886719,0.37109 -5.050451,-2.32561 -8.726162,-4.62545 -12.113281,-9.05859 -3.630059,-4.69772 -7.835423,-5.4241 -13.40625,-6.90625 -7.520851,-2.30838 -12.111223,-7.18341 -15.929687,-13.92188 -1.742497,-4.32849 -2.299276,-8.68678 -2.973877,-13.28247 -0.893884,-5.34864 -2.49433,-8.34093 -6.533931,-11.89331 -4.91434,-5.34992 -5.09632,-11.24052 -5.15625,-18.12109 -0.15336,-5.58851 -0.40305,-10.34944 -2.625,-15.5625 -3.35266,-7.90883 -3.21054,-16.65175 -0.25,-24.687499 1.4165,-3.131486 2.56987,-4.769343 5,-7.3125 2.63113,-3.626699 2.6051,-4.950123 2.75,-9.3125 0.34027,-8.047054 2.93593,-14.849826 8.374995,-20.886719 2.288456,-2.036923 4.305152,-3.666181 7.199219,-4.722656 3.050837,-1.941987 3.755711,-4.615699 5.175781,-7.890625 4.475879,-9.589073 10.740639,-14.755522 20.324219,-19.152344 3.3594,-1.650694 6.337493,-3.725191 9.382812,-5.890625 4.701863,-2.974648 8.492346,-3.606138 14.042969,-3.582031 z"
             fill="#fafbfc"
             id="path6998" /><path
             d="m 54.568249,96.307366 c 3.03648,5.177884 3.55661,11.155634 3,17.000004 -0.83002,2.78104 -1.85305,5.32377 -3,8 -4.62,0.33 -9.24,0.66 -14,1 0,1.32 0,2.64 0,4 1.156289,0.0387 1.156289,0.0387 2.335937,0.0781 1.002891,0.0567 2.005782,0.11343 3.039063,0.17187 1.496602,0.0696 1.496602,0.0696 3.023437,0.14063 2.601563,0.60937 2.601563,0.60937 3.957033,2.30077 1.77694,6.36466 0.46437,13.46424 -2.54297,19.2461 -2.773846,4.44299 -6.081896,7.69719 -10.8125,10.0625 -1.703638,0.22622 -3.413287,0.40888 -5.125,0.5625 -0.910078,0.0838 -1.820156,0.16758 -2.757812,0.2539 -0.698672,0.0606 -1.397344,0.12118 -2.117188,0.1836 -0.5907,1.94603 -0.5907,1.94603 -1,4 1.085524,1.31262 1.085524,1.31262 3.722656,1.09765 1.102149,-0.0116 2.204297,-0.0232 3.339844,-0.0352 1.104727,-0.009 2.209453,-0.0181 3.347656,-0.0273 0.854649,-0.0116 1.709297,-0.0232 2.589844,-0.0352 -0.279404,6.56599 -2.615472,11.10957 -7,16 -5.984485,4.85859 -11.354003,6.75336 -19,7 -0.278438,1.05188 -0.278438,1.05188 -0.5625,2.125 -2.714157,5.42832 -7.1731889,8.65626 -12.8124999,10.75001 -7.213723,2.07686 -12.5194821,1.49351 -19.6250001,-0.875 0,-19.47001 0,-38.94001 0,-59.00001 3.3,-1.32 6.6,-2.64 10.0000001,-4 8.03701105,-4.811 13.406124,-11.96683 18.8315429,-19.40572 9.820943,-13.39965 24.537221,-28.360692 43.168457,-20.594234 z"
             fill="#0a5afb"
             id="path7000"
             style="fill:#fbcd1e;fill-opacity:1" /><path
             d="m -69.494255,100.68237 c 6.853374,5.58474 12.439712,12.99916 17.636719,20.11328 7.244005,9.89759 13.762948,15.13815 25.425781,19.51172 0,19.47 0,38.94 0,59 -8.584801,2.8616 -15.73791,3.03322 -24,-1 -4.39428,-2.91278 -7.609301,-5.74625 -9,-11 -1.27875,-0.0412 -2.5575,-0.0825 -3.875,-0.125 -6.852646,-0.79858 -12.451075,-3.89255 -17.054688,-9.02735 -3.248341,-4.54612 -4.832885,-8.26813 -5.070312,-13.84765 0.770859,0.0116 1.541719,0.0232 2.335937,0.0352 1.504336,0.0135 1.504336,0.0135 3.039063,0.0273 0.997734,0.0116 1.995469,0.0232 3.023438,0.0352 2.585887,0.0824 2.585887,0.0824 4.601562,-1.09766 -0.33,-1.32 -0.66,-2.64 -1,-4 -0.978398,-0.0387 -0.978398,-0.0387 -1.976562,-0.0781 -7.11921,-0.46201 -11.252801,-1.91375 -16.210938,-7.29687 -4.555475,-6.59759 -6.047403,-12.59357 -5.8125,-20.625 0.636719,-2.32032 0.636719,-2.32032 2,-4 2.601563,-0.60938 2.601563,-0.60938 5.625,-0.75 1.002891,-0.0567 2.005781,-0.11344 3.039063,-0.17188 1.156289,-0.0387 1.156289,-0.0387 2.335937,-0.0781 0,-1.32 0,-2.64 0,-4 -6.93,-0.495 -6.93,-0.495 -14,-1 -3.608095,-8.41888 -3.725035,-14.54058 -1.046875,-23.214838 1.046875,-1.785156 1.046875,-1.785156 2.835938,-2.523437 9.63983,-1.141111 18.920556,-0.438866 27.148437,5.113285 z"
             fill="#48f9f5"
             id="path7002"
             style="fill:#d52734;fill-opacity:1" /><path
             d="m 3.5682451,30.307366 c 3.0625,2.1875 3.0625,2.1875 5,4 -1.918373,3.993535 -4.234946,7.700025 -6.5625,11.464844 -2.76330095,4.656958 -2.76330095,4.656958 -3.0625,9.847656 0.30937505,0.835312 0.30937505,0.835312 0.62500005,1.6875 1.90737495,0.02352 1.90737495,0.02352 3.99999995,-1 1.343434,-2.277356 2.441969,-4.408983 3.5,-6.8125 1.965721,-4.384724 3.8127809,-7.977355 7.4999999,-11.1875 5.570855,1.688138 10.16022,5.12707 13.300781,10.03125 1.365304,2.661101 2.552206,5.073156 3.039063,8.039062 0.93109,2.721649 2.380618,3.274675 4.847656,4.679688 5.992042,3.797505 10.240954,8.372057 12.1875,15.3125 0.594491,3.745293 0.856614,7.154464 0.625,10.9375 -1.778944,1.778944 -4.522503,1.510978 -6.9375,1.8125 -13.193702,1.98987 -22.400092,7.07003 -30.407959,17.787104 -1.023027,1.39648 -2.0433579,2.79494 -3.0610349,4.19532 -3.28157,4.50557 -6.666475,8.81988 -10.406006,12.95508 -0.831445,0.92296 -1.662891,1.84593 -2.519531,2.79687 -3.702026,3.40391 -7.4567931,6.45313 -12.6679691,6.45313 0,-34.650004 0,-69.300004 0,-105.000004 7.141363,-2.380454 14.2660361,-1.112993 21.0000001,2 z"
             fill="#0a5afb"
             id="path7004"
             style="fill:#fbcd1e;fill-opacity:1" /><path
             d="m -34.431755,27.182366 c 0.86625,-0.0026 1.7325,-0.0052 2.625,-0.0078 2.375,0.132812 2.375,0.132812 5.375,1.132812 0,34.65 0,69.3 0,105.000002 -12.866516,-2.57331 -21.028815,-15.43283 -28.462402,-25.44557 -7.221279,-9.646827 -15.65728,-16.089417 -27.537598,-18.554444 -2.99757,-0.419209 -5.985699,-0.712924 -9,-1 -1,-1 -1,-1 -1.25,-3.9375 0.182919,-8.114961 2.810702,-14.505896 8.34375,-20.402344 1.836453,-1.59937 3.467377,-2.563506 5.65625,-3.597656 4.063457,-2.578732 4.194978,-4.236306 5.382813,-8.679688 1.930155,-5.303579 6.216882,-9.07792 10.554687,-12.507812 2.3125,-0.875 2.3125,-0.875 4.5625,-0.1875 1.75,1.3125 1.75,1.3125 2.75,3.3125 -0.519492,0.340313 -1.038984,0.680625 -1.574219,1.03125 -6.075657,4.222638 -10.271736,8.707661 -12.238281,15.96875 -0.06188,0.66 -0.12375,1.32 -0.1875,2 -0.66,0 -1.32,0 -2,0 0.185625,0.5775 0.37125,1.155 0.5625,1.75 0.481228,2.474886 0.115377,3.859855 -0.5625,6.25 0.652266,0.400898 1.304531,0.801797 1.976563,1.214844 7.412812,4.821608 11.453799,9.682277 15.402343,17.523437 4.098512,8.07418 9.100391,13.247913 16.621094,18.261723 2.475,-0.495 2.475,-0.495 5,-1 0.33,-24.420004 0.66,-48.840004 1,-74.000004 -8.459935,1.775672 -8.459935,1.775672 -15,6 -0.99,0.66 -1.98,1.32 -3,2 -0.99,-0.99 -1.98,-1.98 -3,-3 1.379097,-3.408441 2.605635,-4.667375 5.9375,-6.1875 0.689648,-0.323555 1.379297,-0.647109 2.089844,-0.980469 3.490795,-1.472355 6.211792,-1.968224 9.972656,-1.957031 z"
             fill="#47f9f5"
             id="path7006"
             style="fill:#d52734;fill-opacity:1" /><path
             d="m -31.431755,31.307366 c 0.04628,9.613844 0.08185,19.22765 0.103624,28.841581 0.01045,4.463817 0.02463,8.927557 0.04725,13.391329 0.02168,4.305297 0.03368,8.61052 0.03888,12.915867 0.0037,1.6451 0.01094,3.290196 0.0217,4.935265 0.01445,2.298735 0.01652,4.597165 0.01559,6.895938 0.0044,1.310161 0.0089,2.620324 0.01346,3.970184 -0.240509,3.04984 -0.240509,3.04984 -2.240509,5.04984 -5.922237,0 -10.509263,-4.67329 -14.601562,-8.496098 -5.542675,-5.942814 -9.066993,-13.542325 -12.496094,-20.839844 -1.235668,-2.278763 -2.548505,-2.582569 -4.902344,-3.664062 -2.375447,-1.609174 -4.689324,-3.299446 -7,-5 0.278438,-0.928125 0.278438,-0.928125 0.5625,-1.875 0.674362,-2.166602 0.674362,-2.166602 -0.5625,-4.125 0.33,-0.66 0.66,-1.32 1,-2 0.66,0 1.32,0 2,0 0.04125,-0.99 0.0825,-1.98 0.125,-3 0.870836,-6.133175 5.181387,-10.424546 9.5625,-14.5 2.3125,-1.5 2.3125,-1.5 5.3125,-1.5 2.64,4.95 5.28,9.9 8,15 1.32,-0.33 2.64,-0.66 4,-1 -0.398008,-5.174164 -2.318993,-8.568588 -5.039057,-12.851562 -0.960938,-2.148438 -0.960938,-2.148438 -0.75,-4.289063 1.542776,-3.635453 4.830252,-5.367678 8.226562,-7.109375 2.95072,-0.863625 5.502213,-0.800514 8.5625,-0.75 z"
             fill="#48f9f5"
             id="path7008"
             style="fill:#d52734;fill-opacity:1" /><path
             d="m 28.568245,62.307366 c 5.745881,2.872941 10.675623,7.943525 13,14 0.195313,3.015625 0.195313,3.015625 0.125,6.25 -0.01805,1.077656 -0.03609,2.155312 -0.05469,3.265625 -0.0232,0.819844 -0.0464,1.639687 -0.07031,2.484375 -0.81082,0.207539 -1.621641,0.415078 -2.457031,0.628906 -16.032575,4.460752 -23.919251,12.468388 -33.5429689,25.371098 -4.78041595,6.25513 -9.514465,12.40227 -16.0000001,17 -0.66,0 -1.32,0 -2,0 -0.116051,-4.58313 -0.187204,-9.16587 -0.25,-13.75 -0.03352,-1.30196 -0.06703,-2.60391 -0.101562,-3.94532 -0.01289,-1.25039 -0.02578,-2.50078 -0.03906,-3.78906 -0.03142,-1.72815 -0.03142,-1.72815 -0.06348,-3.49121 0.549682,-3.661 1.60307,-4.75398 4.4541021,-7.024414 1.220897,-0.763388 2.450274,-1.513371 3.6875,-2.25 4.95235405,-3.589996 7.211137,-8.501671 10.021729,-13.777588 4.3098,-8.039812 9.3683479,-14.277643 17.2907709,-18.972412 2.9375,-0.3125 2.9375,-0.3125 5,0 0.33,-0.66 0.66,-1.32 1,-2 z"
             fill="#0a5afb"
             id="path7010"
             style="fill:#fbcd1e;fill-opacity:1" /><path
             d="m -12.431755,139.30737 c 0,18.81 0,37.62 0,57 12.19317215,-1.84186 12.19317215,-1.84186 20.6250001,-9.5 3.4786099,-4.42133 7.9536649,-5.21316 13.2539059,-6.48047 4.480941,-1.46374 7.244995,-3.35187 9.457031,-7.5625 0.342891,-0.8727 0.685782,-1.74539 1.039063,-2.64453 1.222656,-2.66016 1.222656,-2.66016 2.625,-4.8125 3.8125,-1.125 3.8125,-1.125 7,-1 -0.279404,6.56599 -2.615472,11.10956 -7,16 -5.984485,4.85859 -11.354003,6.75335 -19,7 -0.278438,1.05187 -0.278438,1.05187 -0.5625,2.125 -2.714157,5.42831 -7.1731899,8.65624 -12.8124999,10.75 -7.213723,2.07686 -12.5194821,1.4935 -19.6250001,-0.875 0,-19.47 0,-38.94 0,-59 3,-1 3,-1 5,-1 z"
             fill="#000004"
             id="path7012" /><path
             d="m -31.431755,139.30737 c 2.475,0.495 2.475,0.495 5,1 0,19.47 0,38.94 0,59 -8.584801,2.8616 -15.73791,3.03322 -24,-1 -4.39428,-2.91278 -7.609301,-5.74625 -9,-11 -1.27875,-0.0412 -2.5575,-0.0825 -3.875,-0.125 -6.852646,-0.79858 -12.451075,-3.89255 -17.054687,-9.02735 -3.248342,-4.54612 -4.832886,-8.26813 -5.070313,-13.84765 2.789063,0.17187 2.789063,0.17187 6,1 1.835938,2.32812 1.835938,2.32812 3.375,5.25 3.114103,5.26529 5.878887,8.48993 11.625,10.75 1.514662,0.30345 3.036246,0.5741 4.5625,0.8125 4.930606,0.86961 6.694553,3.40893 9.699219,7.21484 5.108434,5.79721 11.175421,6.13234 18.738281,6.97266 0,-18.81 0,-37.62 0,-57 z"
             fill="#010202"
             id="path7014" /><path
             d="m 3.5682451,30.307366 c 3.0625,2.1875 3.0625,2.1875 5,4 -0.66,1.32 -1.32,2.64 -2,4 -3.703037,0 -4.95353,-1.378377 -7.695312,-3.710938 -3.216125,-1.943679 -3.216125,-1.943679 -11.3046881,-3.289062 0,33.33 0,66.66 0,101.000004 -2.475,0.495 -2.475,0.495 -5,1 0,-34.650004 0,-69.300004 0,-105.000004 7.141363,-2.380454 14.2660361,-1.112993 21.0000001,2 z"
             fill="#000001"
             id="path7016" /><path
             d="m -34.431755,27.182366 c 0.86625,-0.0026 1.7325,-0.0052 2.625,-0.0078 2.375,0.132812 2.375,0.132812 5.375,1.132812 0,34.65 0,69.3 0,105.000002 -1.65,-0.33 -3.3,-0.66 -5,-1 0,-33.330002 0,-66.660002 0,-101.000002 -8.459935,1.775672 -8.459935,1.775672 -15,6 -0.99,0.66 -1.98,1.32 -3,2 -0.99,-0.99 -1.98,-1.98 -3,-3 1.379097,-3.408441 2.605635,-4.667375 5.9375,-6.1875 0.689648,-0.323555 1.379297,-0.647109 2.089844,-0.980469 3.490795,-1.472355 6.211792,-1.968224 9.972656,-1.957031 z"
             fill="#000101"
             id="path7018" /><path
             d="m -70.431755,64.307366 c 5.383483,0.163136 9.178254,3.535631 13,7 4.161418,4.502375 7.270197,9.338982 10.125,14.75 3.361465,6.368159 7.389289,10.151369 13.421875,13.941406 1.862123,1.676908 2.237212,2.830508 2.453125,5.308598 -0.66,0.66 -1.32,1.32 -2,2 -5.922237,0 -10.509263,-4.67329 -14.601563,-8.496098 -5.542674,-5.942814 -9.066992,-13.542325 -12.496093,-20.839843 -1.235668,-2.278764 -2.548505,-2.582569 -4.902344,-3.664063 -2.375447,-1.609174 -4.689324,-3.299446 -7,-5 0.875,-3.875 0.875,-3.875 2,-5 z"
             fill="#f8fefe"
             id="path7020" /><path
             d="m -62.431755,135.30737 c 1.65,0 3.3,0 5,0 1.03136,2.38006 1.929557,4.73222 2.589844,7.24218 1.931439,7.33719 5.176841,12.83792 9.992187,18.67579 5.54797,6.81206 9.151102,15.15803 8.417969,24.08203 -0.66,0.66 -1.32,1.32 -2,2 -2.125,-0.375 -2.125,-0.375 -4,-1 -0.2475,-0.94875 -0.495,-1.8975 -0.75,-2.875 -2.184288,-7.50849 -4.795476,-13.91884 -9.667969,-20.07422 -5.329797,-6.909 -9.386336,-14.30475 -10.582031,-23.05078 0.433594,-2.82422 0.433594,-2.82422 1,-5 z"
             fill="#f8fefe"
             id="path7022" /><path
             d="m 14.568245,135.30737 c 1.67543,0.28604 3.343853,0.61781 5,1 0.779532,11.95282 -4.585377,19.98152 -11.6484379,29.13672 -4.680365,6.42659 -6.504655,13.22577 -8.35156195,20.86328 -1.87500005,0.625 -1.87500005,0.625 -4.00000005,1 -2,-2 -2,-2 -2.375,-4.9375 0.33916,-9.1008 4.953031,-16.45719 10.375,-23.45703 3.991204,-5.19948 6.5340589,-9.52692 8.1874999,-15.91797 1.73318,-6.60818 1.73318,-6.60818 2.8125,-7.6875 z"
             fill="#f5f8fe"
             id="path7024" /><path
             d="m 25.505745,64.494866 c 1.020937,0.402187 1.020937,0.402187 2.0625,0.8125 0.495,1.98 0.495,1.98 1,4 -1.453653,1.172493 -2.913074,2.337838 -4.375,3.5 -0.812109,0.649688 -1.624219,1.299375 -2.460938,1.96875 -2.164062,1.53125 -2.164062,1.53125 -4.164062,1.53125 -0.243633,0.498867 -0.487266,0.997734 -0.738281,1.511719 C 6.7481041,97.701886 6.7481041,97.701886 -0.43175485,103.30737 c -0.524648,0.43828 -1.04929705,0.87656 -1.58984405,1.32812 -2.604403,1.98809 -3.97912,2.70936 -7.285156,2.42188 -0.7012501,-0.2475 -1.4025001,-0.495 -2.1250001,-0.75 -0.495,-1.485 -0.495,-1.485 -1,-3 1.778256,-1.92645 3.4722901,-3.68314 5.7304691,-5.039067 6.12230205,-3.788251 8.68932,-8.813735 11.97876,-14.988525 3.80109,-7.090826 10.9925329,-19.374427 20.2282709,-18.784912 z"
             fill="#f6f9fe"
             id="path7026" /><path
             d="m 14.568245,38.307366 c 5.570855,1.688138 10.16022,5.12707 13.300781,10.03125 1.365304,2.661101 2.552206,5.073156 3.039063,8.039062 0.93109,2.721649 2.380618,3.274675 4.847656,4.679688 5.992042,3.797505 10.240954,8.372057 12.1875,15.3125 0.594491,3.745293 0.856614,7.154464 0.625,10.9375 -1,1 -1,1 -4.0625,1.0625 -0.969375,-0.02062 -1.93875,-0.04125 -2.9375,-0.0625 -0.01418,-0.773438 -0.02836,-1.546875 -0.04297,-2.34375 -0.369521,-8.069551 -1.716631,-13.404977 -7.480469,-19.183594 -2.061465,-1.80509 -4.035864,-3.289647 -6.574218,-4.34375 -1.902344,-1.128906 -1.902344,-1.128906 -2.738281,-3.046875 -0.177891,-0.748945 -0.355782,-1.49789 -0.539063,-2.269531 -2.098393,-7.09348 -6.750774,-11.493216 -12.625,-15.8125 0.99,-0.99 1.98,-1.98 3.000001,-3 z"
             fill="#020209"
             id="path7028" /><path
             d="m -58.181755,38.994866 c 1.75,1.3125 1.75,1.3125 2.75,3.3125 -0.779238,0.510469 -0.779238,0.510469 -1.574219,1.03125 -5.171789,3.594441 -8.769044,7.200518 -11.425781,12.96875 -0.103125,0.886875 -0.20625,1.77375 -0.3125,2.6875 -1.035276,3.482293 -3.574877,4.253105 -6.621094,6.007812 -5.681935,3.58746 -8.397633,9.026367 -10.066406,15.304688 -0.470363,2.676045 -0.757958,5.289134 -1,8 -1.666119,0.04272 -3.333829,0.04064 -5,0 -1,-1 -1,-1 -1.25,-3.9375 0.182919,-8.114961 2.810702,-14.505896 8.34375,-20.402344 1.836453,-1.59937 3.467377,-2.563506 5.65625,-3.597656 4.063457,-2.578732 4.194978,-4.236306 5.382812,-8.679687 1.930156,-5.30358 6.216883,-9.077921 10.554688,-12.507813 2.3125,-0.875 2.3125,-0.875 4.5625,-0.1875 z"
             fill="#020505"
             id="path7030" /><path
             d="m 46.568245,127.30737 c 1.65,0 3.300004,0 5.000004,0 3.11339,5.10015 2.09347,10.34803 1,16 -2.27865,6.08853 -5.611075,10.40738 -11.000004,14 -2.875,0.8125 -2.875,0.8125 -5,1 -0.283143,-3.02544 -0.347257,-4.51812 1.460937,-7.02735 0.631641,-0.63035 1.263282,-1.2607 1.914063,-1.91015 6.083652,-6.61107 6.091253,-13.38209 6.625,-22.0625 z"
             fill="#030307"
             id="path7032" /><path
             d="m -95.431755,127.30737 c 1.65,0 3.3,0 5,0 0.02578,0.84562 0.05156,1.69125 0.07813,2.5625 0.435381,8.70762 1.314511,14.91212 7.671875,21.125 2.25,2.3125 2.25,2.3125 2.5625,5.125 -0.103125,0.72187 -0.20625,1.44375 -0.3125,2.1875 -5.327573,-0.32289 -8.523296,-3.226 -12,-7 -4.344852,-5.85838 -5.30762,-12.8222 -5,-20 0.992188,-2.35938 0.992188,-2.35938 2,-4 z"
             fill="#030505"
             id="path7034" /><path
             d="m 47.568245,95.307366 c 2.310004,0.33 4.620004,0.66 7.000004,1 3.61196,9.287904 3.97786,15.718314 0,25.000004 -1.98,-0.33 -3.96,-0.66 -6.000004,-1 0.165,-0.7425 0.33,-1.485 0.5,-2.25 1.039044,-7.79286 1.206164,-15.30806 -1.5,-22.750004 z"
             fill="#000004"
             id="path7036" /><path
             d="m -91.431755,95.307366 c -0.33,0.886875 -0.66,1.77375 -1,2.6875 -2.039588,7.073464 -1.653637,15.195244 0,22.312504 -1.98,0.33 -3.96,0.66 -6,1 -3.608095,-8.41889 -3.725035,-14.54059 -1.046875,-23.214848 1.046875,-1.785156 1.046875,-1.785156 2.96875,-2.539062 2.078125,-0.246094 2.078125,-0.246094 5.078125,-0.246094 z"
             fill="#000303"
             id="path7038" /></g><text
           xml:space="preserve"
           style="font-style:normal;font-variant:normal;font-weight:normal;font-stretch:normal;font-size:13.3333px;font-family:Avenir;-inkscape-font-specification:'Avenir, Normal';font-variant-ligatures:normal;font-variant-caps:normal;font-variant-numeric:normal;font-variant-east-asian:normal;text-align:end;text-anchor:end;fill:#ffffff;fill-opacity:1;stroke-width:3.77953;paint-order:stroke markers fill"
           x="115.03065"
           y="131.11288"
           id="text6849-9"><tspan
             sodipodi:role="line"
             id="tspan6939"
             x="115.03065"
             y="131.11288">Brain</tspan><tspan
             sodipodi:role="line"
             id="tspan6941"
             x="115.03065"
             y="147.77951">and</tspan><tspan
             sodipodi:role="line"
             id="tspan6943"
             x="115.03065"
             y="164.44614">Behavior</tspan><tspan
             sodipodi:role="line"
             id="tspan6945"
             x="115.03065"
             y="181.11276">Institute</tspan></text><text
           xml:space="preserve"
           style="font-style:normal;font-variant:normal;font-weight:normal;font-stretch:normal;font-size:13.3333px;font-family:Avenir;-inkscape-font-specification:'Avenir, Normal';font-variant-ligatures:normal;font-variant-caps:normal;font-variant-numeric:normal;font-variant-east-asian:normal;text-align:start;text-anchor:start;fill:#ffffff;fill-opacity:1;stroke-width:3.77953;paint-order:stroke markers fill"
           x="98.329269"
           y="35.81374"
           id="text6849-5"><tspan
             sodipodi:role="line"
             id="tspan6947"
             x="98.329269"
             y="35.81374">Department</tspan><tspan
             sodipodi:role="line"
             id="tspan6949"
             x="98.329269"
             y="52.480366">of</tspan><tspan
             sodipodi:role="line"
             id="tspan6951"
             x="98.329269"
             y="69.146988">Biological</tspan><tspan
             sodipodi:role="line"
             id="tspan6953"
             x="98.329269"
             y="85.813614">Sciences</tspan></text></g></g></g></svg>
