<?xml version="1.0" encoding="UTF-8"?>
<svg version="1.1" xmlns="http://www.w3.org/2000/svg" width="820" height="476">
<path d="M0 0 C0.68030273 0.19787109 1.36060547 0.39574219 2.06152344 0.59960938 C6.4484575 1.88755486 10.72810642 3.36352843 15 5 C16.50626953 5.56847656 16.50626953 5.56847656 18.04296875 6.1484375 C22.47730617 8.05526658 25.26872187 9.46437987 27.125 14.0625 C27.95188063 16.92260082 28 18.92045185 28 22 C28.65226563 21.84402344 29.30453125 21.68804687 29.9765625 21.52734375 C30.85054687 21.33269531 31.72453125 21.13804688 32.625 20.9375 C33.48351562 20.74027344 34.34203125 20.54304688 35.2265625 20.33984375 C40.67051804 19.67276751 44.23108462 20.72860819 48.59008789 24.08251953 C49.13785889 24.52966309 49.68562988 24.97680664 50.25 25.4375 C51.14029907 26.15462158 51.14029907 26.15462158 52.04858398 26.88623047 C70.93358698 42.49395163 85.93480062 60.77325917 98 82 C98.55945313 82.886875 99.11890625 83.77375 99.6953125 84.6875 C101.99631591 88.40934158 103.01195323 90.28280616 102.9375 94.75 C102.11482893 97.60192639 101.12381825 100.25806999 100 103 C100.64066406 103.06832031 101.28132813 103.13664062 101.94140625 103.20703125 C105.80712318 104.1000061 108.85914254 105.19473312 111.06396484 108.68359375 C113.68366377 114.22261714 115.31953796 120.12407757 117 126 C117.26796387 126.89251465 117.53592773 127.7850293 117.81201172 128.70458984 C123.36601221 147.33077013 127.0881836 166.8457343 127.625 186.3125 C127.66028809 187.01673096 127.69557617 187.72096191 127.73193359 188.4465332 C127.72073247 192.57414677 126.77794958 194.63775703 123.9609375 197.48046875 C122.49527344 198.72763672 122.49527344 198.72763672 121 200 C122.07747457 202.51410734 122.89882247 203.9175519 125.046875 205.66796875 C127.71381696 208.85229746 127.60207882 211.59074628 127.5 215.5625 C127.48791504 216.33698486 127.47583008 217.11146973 127.46337891 217.90942383 C126.83280259 237.63499756 122.65698341 257.15812922 117 276 C116.73848145 276.91442871 116.47696289 277.82885742 116.20751953 278.77099609 C111.917174 293.51790941 111.917174 293.51790941 107.33203125 297.0625 C104.83182449 298.0780988 102.67601867 298.7146298 100 299 C100.515625 300.19625 101.03125 301.3925 101.5625 302.625 C103.2215725 306.4740482 103.09921093 308.95027552 102 313 C100.57946313 316.07027715 98.9102974 318.96556386 97.1875 321.875 C96.45370117 323.12422241 96.45370117 323.12422241 95.70507812 324.39868164 C87.88250985 337.45824567 78.55933799 349.06832992 68 360 C67.04533347 361.01800467 66.09091018 362.0362375 65.13671875 363.0546875 C47.94243565 381.13991063 47.94243565 381.13991063 39.03125 382.4296875 C36.52290219 382.2009852 34.39296192 381.76628556 32 381 C30.66747866 380.66343533 29.33439205 380.32906953 28 380 C27.8453125 381.8253125 27.8453125 381.8253125 27.6875 383.6875 C27.36265563 387.52066358 26.45160224 389.99572442 24 393 C21.08962705 394.70480648 18.02735661 395.87881927 14.875 397.0625 C13.9886084 397.40611572 13.1022168 397.74973145 12.18896484 398.10375977 C-13.75172894 407.86103482 -45.28566848 410.18134624 -72 402 C-72.68030273 401.80212891 -73.36060547 401.60425781 -74.06152344 401.40039062 C-78.4484575 400.11244514 -82.72810642 398.63647157 -87 397 C-88.00417969 396.62101562 -89.00835937 396.24203125 -90.04296875 395.8515625 C-94.47730617 393.94473342 -97.26872187 392.53562013 -99.125 387.9375 C-99.95188063 385.07739918 -100 383.07954815 -100 380 C-100.65226562 380.15597656 -101.30453125 380.31195313 -101.9765625 380.47265625 C-103.28753906 380.76462891 -103.28753906 380.76462891 -104.625 381.0625 C-105.48351562 381.25972656 -106.34203125 381.45695312 -107.2265625 381.66015625 C-112.67051804 382.32723249 -116.23108462 381.27139181 -120.59008789 377.91748047 C-121.13785889 377.47033691 -121.68562988 377.02319336 -122.25 376.5625 C-122.84353271 376.08441895 -123.43706543 375.60633789 -124.04858398 375.11376953 C-142.93358698 359.50604837 -157.93480062 341.22674083 -170 320 C-170.55945313 319.113125 -171.11890625 318.22625 -171.6953125 317.3125 C-173.99631591 313.59065842 -175.01195323 311.71719384 -174.9375 307.25 C-174.11482893 304.39807361 -173.12381825 301.74193001 -172 299 C-172.64066406 298.93167969 -173.28132813 298.86335938 -173.94140625 298.79296875 C-177.80712318 297.8999939 -180.85914254 296.80526688 -183.06396484 293.31640625 C-185.68366377 287.77738286 -187.31953796 281.87592243 -189 276 C-189.26796387 275.10748535 -189.53592773 274.2149707 -189.81201172 273.29541016 C-195.36601221 254.66922987 -199.0881836 235.1542657 -199.625 215.6875 C-199.66028809 214.98326904 -199.69557617 214.27903809 -199.73193359 213.5534668 C-199.72073247 209.42585323 -198.77794958 207.36224297 -195.9609375 204.51953125 C-194.98382813 203.68808594 -194.00671875 202.85664063 -193 202 C-194.07747457 199.48589266 -194.89882247 198.0824481 -197.046875 196.33203125 C-199.71381696 193.14770254 -199.60207882 190.40925372 -199.5 186.4375 C-199.48791504 185.66301514 -199.47583008 184.88853027 -199.46337891 184.09057617 C-198.83280259 164.36500244 -194.65698341 144.84187078 -189 126 C-188.73848145 125.08557129 -188.47696289 124.17114258 -188.20751953 123.22900391 C-183.917174 108.48209059 -183.917174 108.48209059 -179.33203125 104.9375 C-176.83182449 103.9219012 -174.67601867 103.2853702 -172 103 C-172.515625 101.80375 -173.03125 100.6075 -173.5625 99.375 C-175.2215725 95.5259518 -175.09921093 93.04972448 -174 89 C-172.57946313 85.92972285 -170.9102974 83.03443614 -169.1875 80.125 C-168.69830078 79.29218506 -168.20910156 78.45937012 -167.70507812 77.60131836 C-159.88250985 64.54175433 -150.55933799 52.93167008 -140 42 C-139.04533347 40.98199533 -138.09091018 39.9637625 -137.13671875 38.9453125 C-119.94243565 20.86008937 -119.94243565 20.86008937 -111.03125 19.5703125 C-108.52290219 19.7990148 -106.39296192 20.23371444 -104 21 C-102.66747866 21.33656467 -101.33439205 21.67093047 -100 22 C-99.896875 20.783125 -99.79375 19.56625 -99.6875 18.3125 C-99.36265563 14.47933642 -98.45160224 12.00427558 -96 9 C-93.08962705 7.29519352 -90.02735661 6.12118073 -86.875 4.9375 C-85.9886084 4.59388428 -85.1022168 4.25026855 -84.18896484 3.89624023 C-58.24827106 -5.86103482 -26.71433152 -8.18134624 0 0 Z M-90 27 C-91.61875132 30.03879364 -92.10877005 32.57374336 -92 36 C-92.66 35.835 -93.32 35.67 -94 35.5 C-95.485 35.2525 -95.485 35.2525 -97 35 C-98.19625 34.79375 -99.3925 34.5875 -100.625 34.375 C-107.09470953 34.46012776 -111.51833639 39.88660679 -116 44 C-116.88429688 44.77730469 -117.76859375 45.55460937 -118.6796875 46.35546875 C-126.31900497 53.10082354 -133.28830868 59.98592439 -139.4375 68.125 C-139.99953125 68.86492187 -140.5615625 69.60484375 -141.140625 70.3671875 C-145.8725398 76.67640723 -150.04669406 83.17240809 -154 90 C-154.53753906 90.84304687 -155.07507813 91.68609375 -155.62890625 92.5546875 C-157.95740205 96.32342457 -159.02576227 98.22713182 -158.875 102.75 C-158.58625 103.8225 -158.2975 104.895 -158 106 C-157.814375 106.969375 -157.62875 107.93875 -157.4375 108.9375 C-157.293125 109.618125 -157.14875 110.29875 -157 111 C-157.89187012 111.11384033 -157.89187012 111.11384033 -158.80175781 111.22998047 C-161.57189623 111.8208457 -163.57824678 112.5118234 -166 114 C-168.39609334 117.78060641 -169.52289846 121.84331855 -170.75 126.125 C-171.30602905 127.92988892 -171.30602905 127.92988892 -171.87329102 129.77124023 C-177.15780489 147.46226994 -180.58842155 165.59225401 -182 184 C-182.09539062 185.02738281 -182.19078125 186.05476562 -182.2890625 187.11328125 C-182.53819179 191.53860411 -182.4383748 193.99068009 -179.4375 197.375 C-178.633125 198.24125 -177.82875 199.1075 -177 200 C-176.9375 202.125 -176.9375 202.125 -178 204 C-179.0209375 204.804375 -179.0209375 204.804375 -180.0625 205.625 C-183.88337086 210.30864815 -182.09019562 217.7055368 -181.51953125 223.453125 C-179.91733085 237.20721726 -177.60969093 250.62768464 -174 264 C-173.71495605 265.07040527 -173.42991211 266.14081055 -173.13623047 267.24365234 C-172.22325033 270.57479608 -171.24842936 273.88105501 -170.25 277.1875 C-169.96358643 278.22197266 -169.67717285 279.25644531 -169.38208008 280.32226562 C-167.76520913 285.71707279 -167.76520913 285.71707279 -163.72851562 289.33447266 C-161.47855217 290.09341687 -159.34503385 290.64409108 -157 291 C-157.55338542 292.59505208 -158.10677083 294.19010417 -158.66015625 295.78515625 C-160.41774344 307.2397762 -150.32099875 318.96289603 -143.92407227 327.80981445 C-134.54742953 340.49042119 -124.03182121 352.04974847 -111.875 362.125 C-111.31321045 362.6111377 -110.7514209 363.09727539 -110.17260742 363.59814453 C-105.67504635 367.20377318 -102.72317524 367.51163521 -97 367 C-94.15284501 366.56645435 -94.15284501 366.56645435 -92 366 C-92.01804687 366.56847656 -92.03609375 367.13695312 -92.0546875 367.72265625 C-91.83380569 370.5989216 -91.36416702 372.43912359 -90 375 C-71.08456516 389.31362009 -41.03743935 390.79273864 -18.57421875 387.75 C-6.33427906 385.88026452 7.97167483 382.5885983 18 375 C19.61875132 371.96120636 20.10877005 369.42625664 20 366 C20.66 366.165 21.32 366.33 22 366.5 C22.99 366.665 23.98 366.83 25 367 C26.19625 367.20625 27.3925 367.4125 28.625 367.625 C35.09470953 367.53987224 39.51833639 362.11339321 44 358 C44.88429688 357.22269531 45.76859375 356.44539063 46.6796875 355.64453125 C54.31900497 348.89917646 61.28830868 342.01407561 67.4375 333.875 C67.99953125 333.13507813 68.5615625 332.39515625 69.140625 331.6328125 C73.8725398 325.32359277 78.04669406 318.82759191 82 312 C82.53753906 311.15695312 83.07507813 310.31390625 83.62890625 309.4453125 C85.95740205 305.67657543 87.02576227 303.77286818 86.875 299.25 C86.441875 297.64125 86.441875 297.64125 86 296 C85.814375 295.030625 85.62875 294.06125 85.4375 293.0625 C85.293125 292.381875 85.14875 291.70125 85 291 C85.59458008 290.92410645 86.18916016 290.84821289 86.80175781 290.77001953 C89.57189623 290.1791543 91.57824678 289.4881766 94 288 C96.39609334 284.21939359 97.52289846 280.15668145 98.75 275.875 C99.12068604 274.67174072 99.49137207 273.46848145 99.87329102 272.22875977 C105.15765678 254.5382259 108.58990088 236.40751007 110 218 C110.09539062 216.96101562 110.19078125 215.92203125 110.2890625 214.8515625 C110.42385202 212.43244525 110.50459839 210.36773092 110 208 C107.54182045 205.20754907 107.54182045 205.20754907 105 203 C104.9375 200.4375 104.9375 200.4375 106 198 C106.680625 197.443125 107.36125 196.88625 108.0625 196.3125 C111.52590792 192.17875506 110.18841044 186.45331159 109.79174805 181.28833008 C108.33428703 166.61045586 105.84347882 152.23839655 102 138 C101.71495605 136.92959473 101.42991211 135.85918945 101.13623047 134.75634766 C100.22325033 131.42520392 99.24842936 128.11894499 98.25 124.8125 C97.96358643 123.77802734 97.67717285 122.74355469 97.38208008 121.67773438 C95.76520913 116.28292721 95.76520913 116.28292721 91.72851562 112.66552734 C89.47855217 111.90658313 87.34503385 111.35590892 85 111 C85.55338542 109.40494792 86.10677083 107.80989583 86.66015625 106.21484375 C88.41774344 94.7602238 78.32099875 83.03710397 71.92407227 74.19018555 C62.54742953 61.50957881 52.03182121 49.95025153 39.875 39.875 C39.31321045 39.3888623 38.7514209 38.90272461 38.17260742 38.40185547 C33.67504635 34.79622682 30.72317524 34.48836479 25 35 C22.15284501 35.43354565 22.15284501 35.43354565 20 36 C20.01804687 35.43152344 20.03609375 34.86304687 20.0546875 34.27734375 C19.83380569 31.4010784 19.36416702 29.56087641 18 27 C-8.52037203 6.93159907 -63.47962797 6.93159907 -90 27 Z " fill="#E51937" transform="translate(446,32)"/>
<path d="M0 0 C1.18150131 -0.01268417 2.36300262 -0.02536835 3.58030701 -0.03843689 C4.84810501 -0.03550125 6.11590302 -0.03256561 7.42211914 -0.02954102 C8.73257706 -0.03478287 10.04303497 -0.04002472 11.39320374 -0.04542542 C14.16295012 -0.05434309 16.93240797 -0.05194925 19.70214844 -0.04199219 C23.24079627 -0.0305067 26.77844555 -0.05071255 30.31696224 -0.07990932 C33.70623316 -0.1027339 37.0952733 -0.09580205 40.48461914 -0.09204102 C41.75039291 -0.10327499 43.01616669 -0.11450897 44.32029724 -0.12608337 C55.29070151 -0.03921171 55.29070151 -0.03921171 60.01977539 4.40405273 C61.52026367 6.05712891 61.52026367 6.05712891 62.59008789 7.69702148 C63.00597168 8.31955811 63.42185547 8.94209473 63.8503418 9.58349609 C64.27750488 10.24615479 64.70466797 10.90881348 65.14477539 11.59155273 C66.09146565 13.01424457 67.03943032 14.43608904 67.98852539 15.85717773 C68.47836914 16.59645508 68.96821289 17.33573242 69.47290039 18.09741211 C72.12977302 22.05923859 74.88805223 25.94885377 77.64477539 29.84155273 C78.16571777 30.58107178 78.68666016 31.32059082 79.22338867 32.08251953 C81.44746706 35.38602954 81.44746706 35.38602954 84.01977539 38.40405273 C84.76249295 44.62775079 83.73749685 47.67442955 80.00610352 52.64599609 C79.43311523 53.37052979 78.86012695 54.09506348 78.26977539 54.84155273 C77.07556291 56.4133277 75.88289287 57.98627562 74.69165039 59.56030273 C74.0812793 60.35694336 73.4709082 61.15358398 72.84204102 61.97436523 C71.05217242 64.3608567 69.34487457 66.78603265 67.66040039 69.24780273 C67.1315625 70.01938721 66.60272461 70.79097168 66.05786133 71.5859375 C65.05519124 73.05636114 64.05815451 74.53064685 63.06762695 76.00927734 C62.37878418 77.00713257 62.37878418 77.00713257 61.67602539 78.02514648 C61.2822168 78.60707764 60.8884082 79.18900879 60.48266602 79.78857422 C57.82774197 82.72042208 55.10649539 84.25564141 51.18104553 84.79173279 C50.14435226 84.79713577 49.107659 84.80253876 48.03955078 84.80810547 C46.85804947 84.82078964 45.67654816 84.83347382 44.45924377 84.84654236 C43.19144577 84.84360672 41.92364777 84.84067108 40.61743164 84.83764648 C39.30697372 84.84288834 37.99651581 84.84813019 36.64634705 84.85353088 C33.87660066 84.86244856 31.10714281 84.86005471 28.33740234 84.85009766 C24.79875451 84.83861217 21.26110524 84.85881802 17.72258854 84.88801479 C14.33331762 84.91083937 10.94427748 84.90390752 7.55493164 84.90014648 C5.65627098 84.91699745 5.65627098 84.91699745 3.71925354 84.93418884 C-7.29084821 84.84700282 -7.29084821 84.84700282 -11.98022461 80.40405273 C-13.7878418 78.33618164 -13.7878418 78.33618164 -15.27709961 76.13061523 C-15.83896973 75.31238281 -16.40083984 74.49415039 -16.97973633 73.65112305 C-17.84622803 72.35319824 -17.84622803 72.35319824 -18.73022461 71.02905273 C-19.95556189 69.22353311 -21.18213224 67.41884974 -22.40991211 65.61499023 C-23.01029297 64.72908203 -23.61067383 63.84317383 -24.22924805 62.93041992 C-25.80433219 60.65783616 -27.42992628 58.44875965 -29.11303711 56.25561523 C-29.58 55.63992676 -30.04696289 55.02423828 -30.52807617 54.38989258 C-31.76936173 52.76635684 -33.02657112 51.15503051 -34.28491211 49.54467773 C-36.40533389 45.6165231 -36.92395513 42.77217684 -35.98022461 38.40405273 C-34.52253267 35.84565464 -33.19767961 33.8887479 -31.35522461 31.65405273 C-30.34687265 30.36483868 -29.34184148 29.07302252 -28.33959961 27.77905273 C-27.79883789 27.08682617 -27.25807617 26.39459961 -26.70092773 25.68139648 C-24.82573259 23.19958316 -23.06130504 20.66107942 -21.30834961 18.09155273 C-20.6929834 17.19017578 -20.07761719 16.28879883 -19.44360352 15.36010742 C-18.23671738 13.58359667 -17.03566648 11.80310483 -15.84106445 10.01831055 C-15.28112793 9.20201172 -14.72119141 8.38571289 -14.14428711 7.54467773 C-13.65395996 6.81796875 -13.16363281 6.09125977 -12.65844727 5.3425293 C-9.01961883 1.13940189 -5.44769117 0.028392 0 0 Z " fill="#E51937" transform="translate(385.980224609375,279.595947265625)"/>
<path d="M0 0 C1.18150131 -0.01268417 2.36300262 -0.02536835 3.58030701 -0.03843689 C4.84810501 -0.03550125 6.11590302 -0.03256561 7.42211914 -0.02954102 C8.73257706 -0.03478287 10.04303497 -0.04002472 11.39320374 -0.04542542 C14.16295012 -0.05434309 16.93240797 -0.05194925 19.70214844 -0.04199219 C23.24079627 -0.0305067 26.77844555 -0.05071255 30.31696224 -0.07990932 C33.70623316 -0.1027339 37.0952733 -0.09580205 40.48461914 -0.09204102 C41.75039291 -0.10327499 43.01616669 -0.11450897 44.32029724 -0.12608337 C55.32862279 -0.03891142 55.32862279 -0.03891142 60.01977539 4.40405273 C61.71972656 6.36425781 61.71972656 6.36425781 63.06274414 8.42358398 C63.57426025 9.1914624 64.08577637 9.95934082 64.61279297 10.75048828 C65.13897217 11.56428955 65.66515137 12.37809082 66.20727539 13.21655273 C71.06834056 20.59697436 71.06834056 20.59697436 76.30883789 27.70874023 C77.07417847 28.69716919 77.07417847 28.69716919 77.85498047 29.70556641 C78.81101587 30.92608755 79.78143318 32.13553527 80.76855469 33.33105469 C83.49142133 36.84121935 84.83482489 39.82989629 84.53808594 44.33935547 C83.49888587 48.47902338 80.87700057 51.54476195 78.26977539 54.84155273 C77.07556291 56.4133277 75.88289287 57.98627562 74.69165039 59.56030273 C74.0812793 60.35694336 73.4709082 61.15358398 72.84204102 61.97436523 C71.05217242 64.3608567 69.34487457 66.78603265 67.66040039 69.24780273 C67.1315625 70.01938721 66.60272461 70.79097168 66.05786133 71.5859375 C65.05519124 73.05636114 64.05815451 74.53064685 63.06762695 76.00927734 C62.37878418 77.00713257 62.37878418 77.00713257 61.67602539 78.02514648 C61.2822168 78.60707764 60.8884082 79.18900879 60.48266602 79.78857422 C57.82774197 82.72042208 55.10649539 84.25564141 51.18104553 84.79173279 C50.14435226 84.79713577 49.107659 84.80253876 48.03955078 84.80810547 C46.85804947 84.82078964 45.67654816 84.83347382 44.45924377 84.84654236 C43.19144577 84.84360672 41.92364777 84.84067108 40.61743164 84.83764648 C39.30697372 84.84288834 37.99651581 84.84813019 36.64634705 84.85353088 C33.87660066 84.86244856 31.10714281 84.86005471 28.33740234 84.85009766 C24.79875451 84.83861217 21.26110524 84.85881802 17.72258854 84.88801479 C14.33331762 84.91083937 10.94427748 84.90390752 7.55493164 84.90014648 C5.65627098 84.91699745 5.65627098 84.91699745 3.71925354 84.93418884 C-7.28907201 84.84701689 -7.28907201 84.84701689 -11.98022461 80.40405273 C-13.68017578 78.44384766 -13.68017578 78.44384766 -15.02319336 76.38452148 C-15.53470947 75.61664307 -16.04622559 74.84876465 -16.57324219 74.05761719 C-17.09942139 73.24381592 -17.62560059 72.43001465 -18.16772461 71.59155273 C-23.02878978 64.2111311 -23.02878978 64.2111311 -28.26928711 57.09936523 C-29.03462769 56.11093628 -29.03462769 56.11093628 -29.81542969 55.10253906 C-30.77146509 53.88201792 -31.7418824 52.6725702 -32.72900391 51.47705078 C-35.45187054 47.96688612 -36.79527411 44.97820917 -36.49853516 40.46875 C-35.45933509 36.32908209 -32.83744979 33.26334352 -30.23022461 29.96655273 C-29.03601212 28.39477777 -27.84334209 26.82182985 -26.65209961 25.24780273 C-26.04172852 24.45116211 -25.43135742 23.65452148 -24.80249023 22.83374023 C-23.01262164 20.44724877 -21.30532378 18.02207282 -19.62084961 15.56030273 C-19.09201172 14.78871826 -18.56317383 14.01713379 -18.01831055 13.22216797 C-17.01564046 11.75174433 -16.01860373 10.27745862 -15.02807617 8.79882812 C-14.56884766 8.13359131 -14.10961914 7.46835449 -13.63647461 6.78295898 C-13.24266602 6.20102783 -12.84885742 5.61909668 -12.44311523 5.01953125 C-8.83894163 1.03942165 -5.24232571 0.02732168 0 0 Z " fill="#E51937" transform="translate(385.980224609375,190.595947265625)"/>
<path d="M0 0 C1.18150131 -0.01268417 2.36300262 -0.02536835 3.58030701 -0.03843689 C4.84810501 -0.03550125 6.11590302 -0.03256561 7.42211914 -0.02954102 C8.73257706 -0.03478287 10.04303497 -0.04002472 11.39320374 -0.04542542 C14.16295012 -0.05434309 16.93240797 -0.05194925 19.70214844 -0.04199219 C23.24079627 -0.0305067 26.77844555 -0.05071255 30.31696224 -0.07990932 C33.70623316 -0.1027339 37.0952733 -0.09580205 40.48461914 -0.09204102 C41.75039291 -0.10327499 43.01616669 -0.11450897 44.32029724 -0.12608337 C55.33039899 -0.03889735 55.33039899 -0.03889735 60.01977539 4.40405273 C61.82739258 6.47192383 61.82739258 6.47192383 63.31665039 8.67749023 C63.87852051 9.49572266 64.44039063 10.31395508 65.01928711 11.15698242 C65.59694824 12.02226563 66.17460937 12.88754883 66.76977539 13.77905273 C67.99511267 15.58457235 69.22168302 17.38925573 70.44946289 19.19311523 C71.04984375 20.07902344 71.65022461 20.96493164 72.26879883 21.87768555 C73.84388297 24.15026931 75.46947706 26.35934582 77.15258789 28.55249023 C77.85303223 29.47602295 77.85303223 29.47602295 78.56762695 30.41821289 C79.80891251 32.04174863 81.0661219 33.65307495 82.32446289 35.26342773 C84.44488467 39.19158236 84.96350591 42.03592863 84.01977539 46.40405273 C82.56208345 48.96245083 81.23723039 50.91935757 79.39477539 53.15405273 C78.38642343 54.44326679 77.38139226 55.73508295 76.37915039 57.02905273 C75.83838867 57.7212793 75.29762695 58.41350586 74.74047852 59.12670898 C72.86528337 61.60852231 71.10085582 64.14702605 69.34790039 66.71655273 C68.73253418 67.61792969 68.11716797 68.51930664 67.4831543 69.44799805 C66.27626816 71.2245088 65.07521726 73.00500064 63.88061523 74.78979492 C63.04071045 76.01424316 63.04071045 76.01424316 62.18383789 77.26342773 C61.69351074 77.99013672 61.20318359 78.7168457 60.69799805 79.46557617 C57.9889424 82.59474432 55.30647409 84.22833069 51.18104553 84.79173279 C50.14435226 84.79713577 49.107659 84.80253876 48.03955078 84.80810547 C46.85804947 84.82078964 45.67654816 84.83347382 44.45924377 84.84654236 C43.19144577 84.84360672 41.92364777 84.84067108 40.61743164 84.83764648 C39.30697372 84.84288834 37.99651581 84.84813019 36.64634705 84.85353088 C33.87660066 84.86244856 31.10714281 84.86005471 28.33740234 84.85009766 C24.79875451 84.83861217 21.26110524 84.85881802 17.72258854 84.88801479 C14.33331762 84.91083937 10.94427748 84.90390752 7.55493164 84.90014648 C5.65627098 84.91699745 5.65627098 84.91699745 3.71925354 84.93418884 C-7.25115073 84.84731717 -7.25115073 84.84731717 -11.98022461 80.40405273 C-13.48071289 78.75097656 -13.48071289 78.75097656 -14.55053711 77.11108398 C-14.9664209 76.48854736 -15.38230469 75.86601074 -15.81079102 75.22460938 C-16.2379541 74.56195068 -16.66511719 73.89929199 -17.10522461 73.21655273 C-18.05191487 71.7938609 -18.99987954 70.37201643 -19.94897461 68.95092773 C-20.43881836 68.21165039 -20.92866211 67.47237305 -21.43334961 66.71069336 C-24.09022224 62.74886688 -26.84850145 58.8592517 -29.60522461 54.96655273 C-30.12616699 54.22703369 -30.64710938 53.48751465 -31.18383789 52.72558594 C-33.40791628 49.42207592 -33.40791628 49.42207592 -35.98022461 46.40405273 C-36.72294217 40.18035468 -35.69794606 37.13367592 -31.96655273 32.16210938 C-31.39356445 31.43757568 -30.82057617 30.71304199 -30.23022461 29.96655273 C-29.03601212 28.39477777 -27.84334209 26.82182985 -26.65209961 25.24780273 C-26.04172852 24.45116211 -25.43135742 23.65452148 -24.80249023 22.83374023 C-23.01262164 20.44724877 -21.30532378 18.02207282 -19.62084961 15.56030273 C-19.09201172 14.78871826 -18.56317383 14.01713379 -18.01831055 13.22216797 C-17.01564046 11.75174433 -16.01860373 10.27745862 -15.02807617 8.79882812 C-14.56884766 8.13359131 -14.10961914 7.46835449 -13.63647461 6.78295898 C-13.24266602 6.20102783 -12.84885742 5.61909668 -12.44311523 5.01953125 C-8.83894163 1.03942165 -5.24232571 0.02732168 0 0 Z " fill="#E51937" transform="translate(385.980224609375,101.595947265625)"/>
<path d="M0 0 C1.36806948 0.0029077 2.73614645 0.00328738 4.10421753 0.00126648 C6.96090292 0.00447191 9.81603874 0.03129412 12.67236328 0.07641602 C16.32553548 0.13319421 19.9767855 0.14126306 23.63032722 0.133008 C26.4512603 0.13020535 29.27176773 0.14784036 32.09258652 0.17214012 C34.09163574 0.18724785 36.09076896 0.18947453 38.08987427 0.19148254 C39.30818939 0.21377426 40.52650452 0.23606598 41.78173828 0.2590332 C43.38554855 0.27737968 43.38554855 0.27737968 45.02175903 0.2960968 C49.43368101 1.09736577 51.85704298 3.51710553 54.63964844 6.90795898 C55.14270508 7.64216064 55.64576172 8.3763623 56.1640625 9.1328125 C57.01943604 10.36777466 57.01943604 10.36777466 57.89208984 11.62768555 C58.77695068 12.93153198 58.77695068 12.93153198 59.6796875 14.26171875 C60.916229 16.0693099 62.15320862 17.87660141 63.390625 19.68359375 C63.99100586 20.56337891 64.59138672 21.44316406 65.20996094 22.34960938 C66.71116672 24.50977716 68.25319158 26.62018003 69.84375 28.71484375 C70.2655957 29.28146729 70.68744141 29.84809082 71.12207031 30.43188477 C72.2201337 31.89876506 73.33592573 33.35232845 74.453125 34.8046875 C76.47558793 38.94057069 76.76503062 42.30391104 75.9296875 46.82421875 C74.70466253 49.62211963 73.03659241 51.91055551 71.1796875 54.32421875 C70.17168548 55.70428868 69.16388012 57.08450226 68.15625 58.46484375 C67.62805664 59.17318359 67.09986328 59.88152344 66.55566406 60.61132812 C64.8911959 62.87660431 63.29094499 65.17654615 61.703125 67.49609375 C60.91373535 68.64368164 60.91373535 68.64368164 60.10839844 69.81445312 C59.09553728 71.28758998 58.08562339 72.76275892 57.07910156 74.24023438 C56.60956055 74.91248047 56.14001953 75.58472656 55.65625 76.27734375 C55.24971191 76.86676758 54.84317383 77.45619141 54.42431641 78.06347656 C49.80805162 83.50165063 49.80805162 83.50165063 45.80838013 84.18850708 C43.16832385 84.33753958 40.55816341 84.35224242 37.9140625 84.3203125 C36.94366028 84.32176773 35.97325806 84.32322296 34.97344971 84.32472229 C32.92253618 84.32306484 30.87161002 84.31152085 28.82080078 84.29077148 C25.7042054 84.26194552 22.58932627 84.27014101 19.47265625 84.28320312 C17.47395016 84.27696105 15.47524941 84.26856646 13.4765625 84.2578125 C12.55437927 84.26074814 11.63219604 84.26368378 10.68206787 84.26670837 C4.91041208 84.18390395 -0.96278508 83.75654986 -6.0703125 80.82421875 C-8.0092037 77.86600228 -8.90844909 74.91481885 -9.8203125 71.51171875 C-10.09705811 70.58472168 -10.37380371 69.65772461 -10.65893555 68.70263672 C-11.51610835 65.75491332 -12.30443897 62.79689592 -13.0703125 59.82421875 C-13.31797363 58.86757324 -13.56563477 57.91092773 -13.82080078 56.92529297 C-16.67339451 45.6480005 -18.88073077 34.40025605 -20.0703125 22.82421875 C-20.26224463 21.48928287 -20.45631536 20.15465301 -20.65234375 18.8203125 C-20.81478031 17.4885574 -20.97500188 16.15652993 -21.1328125 14.82421875 C-21.28878906 13.64859375 -21.44476563 12.47296875 -21.60546875 11.26171875 C-20.93345595 6.94514017 -19.5934612 5.28053524 -16.47782898 2.31723022 C-11.49056078 -0.7756037 -5.69070167 -0.10287894 0 0 Z " fill="#E51937" transform="translate(291.0703125,235.17578125)"/>
<path d="M0 0 C0.97040222 -0.00145523 1.94080444 -0.00291046 2.94061279 -0.00440979 C4.99152632 -0.00275234 7.04245248 0.00879165 9.09326172 0.02954102 C12.2098571 0.05836698 15.32473623 0.05017149 18.44140625 0.03710938 C20.44011234 0.04335145 22.43881309 0.05174604 24.4375 0.0625 C25.35968323 0.05956436 26.28186646 0.05662872 27.23199463 0.05360413 C33.00365042 0.13640855 38.87684758 0.56376264 43.984375 3.49609375 C45.9232662 6.45431022 46.82251159 9.40549365 47.734375 12.80859375 C48.14949341 14.19908936 48.14949341 14.19908936 48.57299805 15.61767578 C49.43017085 18.56539918 50.21850147 21.52341658 50.984375 24.49609375 C51.23203613 25.45273926 51.47969727 26.40938477 51.73486328 27.39501953 C54.58745701 38.672312 56.79479327 49.92005645 57.984375 61.49609375 C58.17630713 62.83102963 58.37037786 64.16565949 58.56640625 65.5 C58.72884281 66.8317551 58.88906438 68.16378257 59.046875 69.49609375 C59.20285156 70.67171875 59.35882812 71.84734375 59.51953125 73.05859375 C58.84751845 77.37517233 57.5075237 79.03977726 54.39189148 82.00308228 C49.40462328 85.0959162 43.60476417 84.42319144 37.9140625 84.3203125 C36.54599302 84.3174048 35.17791605 84.31702512 33.80984497 84.31904602 C30.95315958 84.31584059 28.09802376 84.28901838 25.24169922 84.24389648 C21.58852702 84.18711829 17.937277 84.17904944 14.28373528 84.1873045 C11.4628022 84.19010715 8.64229477 84.17247214 5.82147598 84.14817238 C3.82242676 84.13306465 1.82329354 84.13083797 -0.17581177 84.12882996 C-1.39412689 84.10653824 -2.61244202 84.08424652 -3.86767578 84.0612793 C-4.93688263 84.04904831 -6.00608948 84.03681732 -7.10769653 84.0242157 C-11.51961851 83.22294673 -13.94298048 80.80320697 -16.72558594 77.41235352 C-17.22864258 76.67815186 -17.73169922 75.9439502 -18.25 75.1875 C-18.82024902 74.36419189 -19.39049805 73.54088379 -19.97802734 72.69262695 C-20.56793457 71.823396 -21.1578418 70.95416504 -21.765625 70.05859375 C-23.0021665 68.2510026 -24.23914612 66.44371109 -25.4765625 64.63671875 C-26.07694336 63.75693359 -26.67732422 62.87714844 -27.29589844 61.97070312 C-28.79710422 59.81053534 -30.33912908 57.70013247 -31.9296875 55.60546875 C-32.3515332 55.03884521 -32.77337891 54.47222168 -33.20800781 53.88842773 C-34.3060712 52.42154744 -35.42186323 50.96798405 -36.5390625 49.515625 C-38.56152543 45.37974181 -38.85096812 42.01640146 -38.015625 37.49609375 C-36.79060003 34.69819287 -35.12252991 32.40975699 -33.265625 29.99609375 C-32.25762298 28.61602382 -31.24981762 27.23581024 -30.2421875 25.85546875 C-29.71399414 25.14712891 -29.18580078 24.43878906 -28.64160156 23.70898438 C-26.9771334 21.44370819 -25.37688249 19.14376635 -23.7890625 16.82421875 C-23.26280273 16.05916016 -22.73654297 15.29410156 -22.19433594 14.50585938 C-21.18147478 13.03272252 -20.17156089 11.55755358 -19.16503906 10.08007812 C-18.69549805 9.40783203 -18.22595703 8.73558594 -17.7421875 8.04296875 C-17.33564941 7.45354492 -16.92911133 6.86412109 -16.51025391 6.25683594 C-11.42386272 0.26483116 -7.50821934 -0.09066857 0 0 Z " fill="#E51937" transform="translate(491.015625,146.50390625)"/>
<path d="M0 0 C1.45778618 -0.01142029 1.45778618 -0.01142029 2.94502258 -0.02307129 C4.98456264 -0.033809 7.0241574 -0.03675138 9.0637207 -0.03222656 C12.17817211 -0.03124925 15.29019705 -0.07304718 18.40429688 -0.1171875 C20.39452615 -0.12239173 22.38476392 -0.12508274 24.375 -0.125 C25.30011887 -0.14139526 26.22523773 -0.15779053 27.1783905 -0.17468262 C31.49733159 -0.1285636 34.51940462 0.02067088 37.95751953 2.79174805 C41.60893361 6.65415933 41.60893361 6.65415933 43.09375 8.89453125 C43.51487061 9.51835693 43.93599121 10.14218262 44.36987305 10.78491211 C44.80082275 11.44370361 45.23177246 12.10249512 45.67578125 12.78125 C46.62264712 14.20642786 47.57059719 15.63088588 48.51953125 17.0546875 C49.00292969 17.78268555 49.48632812 18.51068359 49.984375 19.26074219 C51.48759072 21.46773618 53.0514349 23.61499957 54.64453125 25.7578125 C55.15218018 26.45350342 55.6598291 27.14919434 56.18286133 27.8659668 C57.15108353 29.18917741 58.1345368 30.50142758 59.13549805 31.80004883 C62.04834056 35.84687837 63.31264857 39.13591266 63.01098633 44.16772461 C62.0021201 48.60890358 59.42478216 51.93148992 56.73828125 55.53125 C55.86550537 56.74929321 55.86550537 56.74929321 54.97509766 57.99194336 C53.16752785 60.50061191 51.33025825 62.98527381 49.48828125 65.46875 C48.34424494 67.0410797 47.20098765 68.61397658 46.05859375 70.1875 C44.99558515 71.63695585 43.93057367 73.08494559 42.86328125 74.53125 C42.36731445 75.20357666 41.87134766 75.87590332 41.36035156 76.56860352 C39.21734763 79.41271825 37.47733887 81.47604492 34.48828125 83.46875 C31.82086182 83.75636292 31.82086182 83.75636292 28.56738281 83.80688477 C27.34891663 83.82932755 26.13045044 83.85177032 24.87506104 83.87489319 C23.55632996 83.88653 22.23759888 83.89816681 20.87890625 83.91015625 C19.87011036 83.92051061 19.87011036 83.92051061 18.84093475 83.93107414 C15.27969634 83.9669011 11.71861609 83.99044232 8.15722656 84.00415039 C4.4903397 84.02067429 0.82538985 84.07905905 -2.84084702 84.14729404 C-5.67031169 84.19222228 -8.49931847 84.20565523 -11.32910919 84.21076775 C-13.33389997 84.22243971 -15.33840758 84.26746962 -17.3427124 84.31312561 C-27.52460526 84.26410773 -27.52460526 84.26410773 -31.86914062 80.22387695 C-34.35480994 77.40378261 -34.88690999 75.37154151 -34.93359375 71.6328125 C-34.75257605 69.78175506 -34.52578322 67.93479617 -34.26171875 66.09375 C-34.14473633 65.09496826 -34.02775391 64.09618652 -33.90722656 63.06713867 C-31.65535707 45.18145671 -27.94843079 27.41762652 -22.12353516 10.34179688 C-21.42925251 8.32654311 -21.42925251 8.32654311 -20.8984375 5.609375 C-16.9100082 -0.54741163 -6.5509877 0.0014357 0 0 Z " fill="#E51937" transform="translate(304.51171875,146.53125)"/>
<path d="M0 0 C1.21846619 -0.02244278 2.43693237 -0.04488556 3.69232178 -0.06800842 C5.01105286 -0.07964523 6.32978394 -0.09128204 7.68847656 -0.10327148 C8.69727245 -0.11362584 8.69727245 -0.11362584 9.72644806 -0.12418938 C13.28768647 -0.16001634 16.84876672 -0.18355755 20.41015625 -0.19726562 C24.07704311 -0.21378953 27.74199296 -0.27217429 31.40822983 -0.34040928 C34.2376945 -0.38533752 37.06670129 -0.39877047 39.896492 -0.40388298 C41.90128278 -0.41555494 43.90579039 -0.46058486 45.91009521 -0.50624084 C56.09198807 -0.45722296 56.09198807 -0.45722296 60.43652344 3.58300781 C62.92219275 6.40310216 63.4542928 8.43534326 63.50097656 12.17407227 C63.31995886 14.0251297 63.09316604 15.8720886 62.82910156 17.71313477 C62.71211914 18.7119165 62.59513672 19.71069824 62.47460938 20.73974609 C60.22273988 38.62542805 56.5158136 56.38925825 50.69091797 73.46508789 C49.99663532 75.48034166 49.99663532 75.48034166 49.46582031 78.19750977 C47.12183486 81.81583097 43.13322783 82.36768762 39.07910156 83.33813477 C35.56918367 83.75030908 32.09913914 83.80611075 28.56738281 83.80688477 C27.10959663 83.81830505 27.10959663 83.81830505 25.62236023 83.82995605 C23.58282017 83.84069377 21.54322541 83.84363615 19.50366211 83.83911133 C16.3892107 83.83813402 13.27718576 83.87993194 10.16308594 83.92407227 C8.17285666 83.9292765 6.18261889 83.9319675 4.19238281 83.93188477 C3.26726395 83.94828003 2.34214508 83.96467529 1.38899231 83.98156738 C-2.92994878 83.93544837 -5.9520218 83.78621389 -9.39013672 81.01513672 C-13.04155079 77.15272544 -13.04155079 77.15272544 -14.52636719 74.91235352 C-14.94748779 74.28852783 -15.3686084 73.66470215 -15.80249023 73.02197266 C-16.23343994 72.36318115 -16.66438965 71.70438965 -17.10839844 71.02563477 C-18.05526431 69.60045691 -19.00321438 68.17599889 -19.95214844 66.75219727 C-20.67724609 65.6602002 -20.67724609 65.6602002 -21.41699219 64.54614258 C-22.92020791 62.33914859 -24.48405209 60.1918852 -26.07714844 58.04907227 C-26.58479736 57.35338135 -27.09244629 56.65769043 -27.61547852 55.94091797 C-28.58370071 54.61770735 -29.56715398 53.30545718 -30.56811523 52.00683594 C-33.48095774 47.9600064 -34.74526576 44.67097211 -34.44360352 39.63916016 C-33.43473729 35.19798119 -30.85739935 31.87539484 -28.17089844 28.27563477 C-27.58904785 27.46360596 -27.00719727 26.65157715 -26.40771484 25.81494141 C-24.60014504 23.30627286 -22.76287544 20.82161096 -20.92089844 18.33813477 C-19.77686213 16.76580506 -18.63360483 15.19290819 -17.49121094 13.61938477 C-16.42820234 12.16992891 -15.36319086 10.72193917 -14.29589844 9.27563477 C-13.79993164 8.60330811 -13.30396484 7.93098145 -12.79296875 7.23828125 C-8.8297446 1.97843827 -6.59271194 0.10237534 0 0 Z " fill="#E51937" transform="translate(486.9208984375,235.661865234375)"/>
<path d="M0 0 C0.82814209 0.27142822 1.65628418 0.54285645 2.50952148 0.82250977 C8.21825164 2.91632988 8.21825164 2.91632988 10.1640625 6.60546875 C10.93296538 11.74669223 11.11106013 14.65614737 7.95703125 18.9375 C7.39306641 19.7109375 6.82910156 20.484375 6.24804688 21.28125 C5.65056641 22.0753125 5.05308594 22.869375 4.4375 23.6875 C3.85935547 24.4815625 3.28121094 25.275625 2.68554688 26.09375 C-5.58524053 37.30837699 -5.58524053 37.30837699 -10.37231445 38.32241821 C-11.4830835 38.32639618 -12.59385254 38.33037415 -13.73828125 38.33447266 C-15.63549927 38.35811386 -15.63549927 38.35811386 -17.57104492 38.38223267 C-18.94320551 38.37328256 -20.31535812 38.36302749 -21.6875 38.3515625 C-23.10327572 38.35493342 -24.51904861 38.35978834 -25.93481445 38.36605835 C-28.89725385 38.37341695 -31.85893774 38.36275858 -34.82128906 38.33935547 C-38.61137526 38.31086623 -42.39969123 38.32727594 -46.18971252 38.35721779 C-49.11182908 38.37531941 -52.03352857 38.36952008 -54.95565796 38.35657883 C-56.35265311 38.35325262 -57.74968661 38.35730432 -59.14663696 38.36897659 C-61.10165647 38.38172848 -63.05680943 38.35883275 -65.01171875 38.33447266 C-66.67787231 38.32850571 -66.67787231 38.32850571 -68.37768555 38.32241821 C-72.32087153 37.48713695 -73.79543332 35.70532306 -76.375 32.6875 C-76.9613623 32.00204102 -77.54772461 31.31658203 -78.15185547 30.61035156 C-79.87759357 28.40509459 -81.56867132 26.17679174 -83.25 23.9375 C-83.85585938 23.17695312 -84.46171875 22.41640625 -85.0859375 21.6328125 C-88.05631997 17.64979964 -89.85001808 14.87110238 -89.4453125 9.796875 C-88.91952115 6.4686083 -88.02958995 4.78490238 -85.375 2.6875 C-83.29711914 1.73608398 -83.29711914 1.73608398 -80.91015625 0.93359375 C-80.02650391 0.63646484 -79.14285156 0.33933594 -78.23242188 0.03320312 C-76.84893555 -0.41635742 -76.84893555 -0.41635742 -75.4375 -0.875 C-74.54998047 -1.17857422 -73.66246094 -1.48214844 -72.74804688 -1.79492188 C-49.02970578 -9.63273221 -23.38519902 -7.98470958 0 0 Z " fill="#E51937" transform="translate(449.375,58.3125)"/>
<path d="M0 0 C1.26481201 -0.0157608 2.52962402 -0.03152161 3.83276367 -0.04776001 C5.20492426 -0.0388099 6.57707687 -0.02855483 7.94921875 -0.01708984 C9.36499447 -0.02046076 10.78076736 -0.02531568 12.1965332 -0.03158569 C15.1589726 -0.03894429 18.12065649 -0.02828592 21.08300781 -0.00488281 C24.87309401 0.02360643 28.66140998 0.00719672 32.45143127 -0.02274513 C35.37354783 -0.04084675 38.29524732 -0.03504742 41.21737671 -0.02210617 C42.61437186 -0.01877997 44.01140536 -0.02283166 45.40835571 -0.03450394 C47.36337522 -0.04725582 49.31852818 -0.0243601 51.2734375 0 C52.93959106 0.00596695 52.93959106 0.00596695 54.6394043 0.01205444 C58.58259028 0.8473357 60.05715207 2.62914959 62.63671875 5.64697266 C63.51626221 6.67516113 63.51626221 6.67516113 64.41357422 7.72412109 C66.13931232 9.92937807 67.83039007 12.15768092 69.51171875 14.39697266 C70.11757813 15.15751953 70.7234375 15.91806641 71.34765625 16.70166016 C74.31803872 20.68467302 76.11173683 23.46337028 75.70703125 28.53759766 C75.1812399 31.86586435 74.2913087 33.54957027 71.63671875 35.64697266 C69.55883789 36.59838867 69.55883789 36.59838867 67.171875 37.40087891 C66.28822266 37.69800781 65.40457031 37.99513672 64.49414062 38.30126953 C63.57181641 38.60097656 62.64949219 38.90068359 61.69921875 39.20947266 C60.81169922 39.51304687 59.92417969 39.81662109 59.00976562 40.12939453 C35.29142453 47.96720487 9.64691777 46.31918223 -13.73828125 38.33447266 C-14.56642334 38.06304443 -15.39456543 37.79161621 -16.24780273 37.51196289 C-21.95653289 35.41814277 -21.95653289 35.41814277 -23.90234375 31.72900391 C-24.67124663 26.58778042 -24.84934138 23.67832529 -21.6953125 19.39697266 C-21.13134766 18.62353516 -20.56738281 17.85009766 -19.98632812 17.05322266 C-19.38884766 16.25916016 -18.79136719 15.46509766 -18.17578125 14.64697266 C-17.59763672 13.85291016 -17.01949219 13.05884766 -16.42382812 12.24072266 C-7.41588191 0.02655829 -7.41588191 0.02655829 0 0 Z " fill="#E51937" transform="translate(384.36328125,369.35302734375)"/>
<path d="M0 0 C1.26096748 0.00022659 1.26096748 0.00022659 2.54740906 0.00045776 C3.90223137 0.01594162 3.90223137 0.01594162 5.28442383 0.03173828 C6.67640739 0.03598312 6.67640739 0.03598312 8.09651184 0.04031372 C11.06162386 0.05151242 14.02643429 0.07661644 16.99145508 0.10205078 C19.00121634 0.11208098 21.01098234 0.12120676 23.02075195 0.12939453 C27.94860261 0.15145074 32.8762277 0.18597849 37.80395508 0.22705078 C40.28277816 4.86077811 41.33946916 7.07778373 39.80395508 12.22705078 C30.73770568 31.33093345 15.86747995 48.62527353 -0.19604492 62.22705078 C-0.9050293 62.88060547 -1.61401367 63.53416016 -2.34448242 64.20751953 C-5.56151549 66.98586628 -8.24593286 68.73307755 -12.57104492 68.91455078 C-18.58381762 67.79105692 -21.70675506 62.31196668 -24.95385742 57.58251953 C-25.33960938 57.0029248 -25.72536133 56.42333008 -26.12280273 55.82617188 C-27.01982472 54.48961727 -27.97277883 53.19082505 -28.93823242 51.90283203 C-31.857069 47.8378986 -32.73425769 44.64575883 -32.61547852 39.66210938 C-31.82988575 35.10128155 -29.16547058 31.80842817 -26.44604492 28.16455078 C-25.86419434 27.35252197 -25.28234375 26.54049316 -24.68286133 25.70385742 C-22.87529152 23.19518887 -21.03802193 20.71052698 -19.19604492 18.22705078 C-18.05200861 16.65472108 -16.90875132 15.0818242 -15.76635742 13.50830078 C-14.70334882 12.05884493 -13.63833735 10.61085519 -12.57104492 9.16455078 C-12.07507813 8.49222412 -11.57911133 7.81989746 -11.06811523 7.12719727 C-7.79190764 2.77913699 -5.62590608 -0.03378923 0 0 Z " fill="#E51937" transform="translate(485.196044921875,324.77294921875)"/>
<path d="M0 0 C0.99 0.85464844 1.98 1.70929688 3 2.58984375 C9.73583853 8.52259206 15.58141298 14.81655629 21 22 C21.40992188 22.54027832 21.81984375 23.08055664 22.2421875 23.63720703 C38.22430391 44.84378044 38.22430391 44.84378044 37.80078125 52.69140625 C37 56 37 56 35 59 C33.19865417 59.38768005 33.19865417 59.38768005 30.99682617 59.40405273 C30.17224411 59.41673691 29.34766205 59.42942108 28.49809265 59.44248962 C27.60540176 59.43955399 26.71271088 59.43661835 25.79296875 59.43359375 C24.87542313 59.4388356 23.9578775 59.44407745 23.01252747 59.44947815 C21.0681764 59.45590973 19.12378648 59.45454671 17.17944336 59.44604492 C14.20941305 59.43756258 11.2413231 59.4662351 8.27148438 59.49804688 C6.38281308 59.49965968 4.49413838 59.49907985 2.60546875 59.49609375 C1.71885056 59.50732773 0.83223236 59.51856171 -0.08125305 59.53013611 C-4.10483591 59.48488037 -6.40125881 59.36395556 -9.89819336 57.23828125 C-11.87736806 55.13059468 -13.60102509 53.07524957 -15.234375 50.69140625 C-15.80462402 49.86809814 -16.37487305 49.04479004 -16.96240234 48.1965332 C-17.55230957 47.32730225 -18.1422168 46.45807129 -18.75 45.5625 C-19.9865415 43.75490885 -21.22352112 41.94761734 -22.4609375 40.140625 C-23.06131836 39.26083984 -23.66169922 38.38105469 -24.28027344 37.47460938 C-25.78147922 35.31444159 -27.32350408 33.20403872 -28.9140625 31.109375 C-29.3359082 30.54275146 -29.75775391 29.97612793 -30.19238281 29.39233398 C-31.2904462 27.92545369 -32.40623823 26.4718903 -33.5234375 25.01953125 C-35.55229226 20.87057694 -35.88730403 17.53250946 -35 13 C-33.60548444 9.9586511 -31.77213394 7.40501556 -29.75 4.75 C-29.25886719 4.069375 -28.76773437 3.38875 -28.26171875 2.6875 C-26.86793642 0.76965551 -25.44193862 -1.11821411 -24 -3 C-23.27167969 -3.96679688 -22.54335938 -4.93359375 -21.79296875 -5.9296875 C-20 -8 -20 -8 -17.5625 -8.875 C-9.73120355 -9.25701446 -5.63365325 -4.87467497 0 0 Z " fill="#E51937" transform="translate(488,82)"/>
<path d="M0 0 C5.23647156 2.42247984 8.31702438 7.87690286 11.43457031 12.56103516 C12.3315923 13.89758976 13.28454641 15.19638198 14.25 16.484375 C17.14733248 20.51936063 18.08336147 23.73213293 17.96728516 28.68505859 C17.07324841 33.50107588 14.04968604 37.02669405 11.1328125 40.84765625 C10.18075928 42.14497681 10.18075928 42.14497681 9.20947266 43.46850586 C7.92678513 45.21558126 6.6363295 46.95698192 5.33789062 48.69238281 C3.682296 50.92487353 2.07529929 53.18063959 0.4921875 55.46484375 C0.04665527 56.10591064 -0.39887695 56.74697754 -0.85791016 57.4074707 C-1.67238549 58.58149632 -2.48470936 59.7570187 -3.29443359 60.93432617 C-5.44477589 63.9775752 -7.21719219 66.36554952 -10.4921875 68.16015625 C-13.68708268 68.57618259 -16.85335608 68.50859039 -20.0703125 68.453125 C-21.46017365 68.44675774 -21.46017365 68.44675774 -22.87811279 68.44026184 C-25.83310184 68.42348947 -28.78740511 68.3858398 -31.7421875 68.34765625 C-33.74738597 68.33260755 -35.75259515 68.31891947 -37.7578125 68.30664062 C-42.66953446 68.27359063 -47.58074476 68.22181807 -52.4921875 68.16015625 C-56.19400026 60.97240318 -56.19400026 60.97240318 -55.4921875 57.16015625 C-54.10972609 54.20419955 -52.42296936 51.47782804 -50.6796875 48.72265625 C-50.18267334 47.92641846 -49.68565918 47.13018066 -49.17358398 46.30981445 C-38.75717134 29.90597622 -25.99229159 14.93819587 -10.4921875 3.16015625 C-9.47511719 2.31324219 -9.47511719 2.31324219 -8.4375 1.44921875 C-5.470913 -0.51659191 -3.46274249 -0.4971264 0 0 Z " fill="#E51937" transform="translate(349.4921875,72.83984375)"/>
<path d="M0 0 C1.08990486 -0.00810448 1.08990486 -0.00810448 2.201828 -0.01637268 C3.4387011 -0.03539894 3.4387011 -0.03539894 4.70056152 -0.05480957 C5.59325241 -0.05187393 6.4859433 -0.04893829 7.40568542 -0.0459137 C8.32323105 -0.05115555 9.24077667 -0.0563974 10.18612671 -0.0617981 C12.13047778 -0.06822968 14.0748677 -0.06686666 16.01921082 -0.05836487 C18.98924112 -0.04988253 21.95733108 -0.07855505 24.9271698 -0.11036682 C26.8158411 -0.11197962 28.7045158 -0.11139979 30.59318542 -0.1084137 C31.92311272 -0.12526466 31.92311272 -0.12526466 33.27990723 -0.14245605 C37.30349008 -0.09720031 39.59991298 0.0237245 43.09684753 2.1493988 C45.07602224 4.25708537 46.79967927 6.31243048 48.43302917 8.6962738 C49.0032782 9.51958191 49.57352722 10.34289001 50.16105652 11.19114685 C50.75096375 12.06037781 51.34087097 12.92960876 51.94865417 13.82518005 C53.18519567 15.6327712 54.42217529 17.44006271 55.65959167 19.24705505 C56.56016296 20.56673279 56.56016296 20.56673279 57.47892761 21.91307068 C58.9801334 24.07323846 60.52215826 26.18364133 62.11271667 28.27830505 C62.53456238 28.84492859 62.95640808 29.41155212 63.39103699 29.99534607 C64.48910037 31.46222637 65.60489241 32.91578976 66.72209167 34.3681488 C68.75094643 38.51710311 69.08595821 41.85517059 68.19865417 46.38768005 C66.80413861 49.42902895 64.97078812 51.98266449 62.94865417 54.63768005 C62.45752136 55.31830505 61.96638855 55.99893005 61.46037292 56.70018005 C60.06665544 58.61793532 58.63724384 60.50349566 57.19865417 62.38768005 C56.50384949 63.34416443 55.8090448 64.3006488 55.09318542 65.28611755 C52.42716617 68.24347499 50.63228334 68.67956177 46.74552917 68.89549255 C41.11975416 67.77378895 37.24259571 63.19695292 33.19865417 59.38768005 C32.18531082 58.49557191 31.16833988 57.60756828 30.14787292 56.72361755 C23.42669428 50.84298624 17.58314744 44.52592553 12.19865417 37.38768005 C11.7887323 36.84740173 11.37881042 36.30712341 10.95646667 35.75047302 C-5.02564974 14.54389962 -5.02564974 14.54389962 -4.60212708 6.6962738 C-3.14525684 0.67691241 -3.14525684 0.67691241 0 0 Z " fill="#E51937" transform="translate(298.8013458251953,324.61231994628906)"/>
</svg>
